<?xml version="1.0" encoding="utf-8"?>
<!-- Generator: Adobe Illustrator 26.0.0, SVG Export Plug-In . SVG Version: 6.00 Build 0)  -->
<svg version="1.1" id="Capa_1" xmlns="http://www.w3.org/2000/svg" xmlns:xlink="http://www.w3.org/1999/xlink" x="0px" y="0px"
	 viewBox="0 0 100 100" style="enable-background:new 0 0 100 100;" xml:space="preserve">
<style type="text/css">
	.st0{fill:#AF6D59;stroke:#AF6D59;stroke-miterlimit:10;}
	.st1{display:none;}
	.st2{display:inline;}
	.st3{fill:#4DC2C3;stroke:#4DC2C3;stroke-width:1.2996;stroke-miterlimit:10;}
	.st4{fill:#4DC2C3;stroke:#4DC2C3;stroke-width:1.1716;stroke-miterlimit:10;}
</style>
<g id="_x31_">
	<g>
		<g>
			<g>
				<path class="st0" d="M91,21.1c-6.6,0.2-13.3,0.2-19.8,0.1c-2.7,0-5.5,0-8.2,0h-7.2c-7.3,0-14.6,0-21.9,0c-1.4,0-1.8,0.3-1.9,0.5
					c-0.2,0.3-0.1,0.9,0,1.3c1.1,3.2,2.2,6.5,3.3,9.6c0.6,1.7,1.2,3.5,1.8,5.3c0.3,1,0.9,1.3,2.1,1.3c2,0,4.1,0,6.1,0
					c0.8,0,1.7,0,2.5,0h3c2.4,0,4.8,0,7.2,0l0,0c1.7,0,1.9-0.3,1.9-1.1c0-0.6-0.2-0.8-0.3-0.8c-0.3-0.3-0.8-0.4-1.5-0.3
					c-0.3,0-0.7,0-1,0c-1.5,0-3.1,0-4.6,0c-3.5,0-7.1,0-10.7,0.1c-1.9,0-3-0.7-3.5-2.6c-0.8-2.7-1.6-5.3-2.6-7.8
					c-0.3-0.8-0.5-1.7,0-2.3c0.5-0.7,1.4-0.8,2.2-0.8c9.1,0,18.2,0,27.4,0c8.7,0,17.4,0,26.1,0c2,0,3.4,0.5,4.2,1.6
					c0.8,1.1,0.8,2.6,0.1,4.6c-1.3,3.6-2.5,7.3-3.8,10.9c-1.6,4.7-3.4,9.6-5,14.4c-0.5,1.6-1.4,2.2-3,2.2l0,0c-16.5,0-33.2,0-49.8,0
					l0,0c-1.6,0-2.6-0.7-3-2.2s-1-3-1.5-4.4c-0.2-0.6-0.4-1.1-0.6-1.7c-1.1-3.2-2.2-6.4-3.3-9.6c-3.1-9.1-6.3-18.5-9.4-27.8
					c-0.6-1.9-1.4-2.5-3.2-2.4c-2.2,0.1-4.5,0.1-6.6,0.1C5.4,9,4.5,9,3.6,9l0,0C2.1,9,2,9.5,2,10.1s0.1,1.1,1.6,1.1
					c0.5,0,1.1,0,1.6,0c1.8,0,3.7,0.1,5.5,0c0.1,0,0.3,0,0.4,0c1.8,0,2.7,0.8,3.4,2.6c4.2,12.7,8.6,25.5,12.9,37.9l1.6,4.8
					c0.5,1.5,0.8,2.3,1.3,2.7c0.4,0.3,1.3,0.3,3,0.3c12.7,0,25.5,0,38.2,0h3.7c1.2,0,2.3,0,3.5,0c2.1,0,4.3,0,6.5,0
					c1.6,0,2.4-0.6,2.9-2l0.9-2.6c2.8-8.2,5.6-16.6,8.7-24.9c0.8-2.3,0.6-4.4-0.6-6.1C95.6,22,93.3,21,91,21.1z"/>
				<path class="st0" d="M79.8,68.6c0-0.5-0.2-1-1.2-1.1c-0.3,0-0.7,0-1,0h-0.4h-37h-0.4c-0.3,0-0.7,0-1,0c-1.1,0.1-1.2,0.6-1.2,1.1
					c0,0.3,0,1,1.2,1.1c0.5,0,1,0,1.5,0h0.3h22.3c4.6,0,9.2,0,13.8,0h0.4c0.5,0,1,0,1.4,0C79.7,69.6,79.8,69.1,79.8,68.6z"/>
				<path class="st0" d="M79.4,76.4L79.4,76.4c-1.9,0-3.8,0.8-5.2,2.2C72.8,80,72,81.8,72,83.8s0.8,3.8,2.2,5.1
					c1.4,1.4,3.2,2.1,5.2,2.1c1.9,0,3.8-0.8,5.1-2.2c1.4-1.4,2.1-3.3,2.1-5.2C86.6,79.7,83.3,76.4,79.4,76.4z M82.8,87.2
					c-1,0.9-2.2,1.4-3.5,1.4c-0.1,0-0.1,0-0.2,0c-1.3,0-2.6-0.6-3.5-1.6s-1.4-2.3-1.4-3.6c0-1.3,0.6-2.6,1.7-3.6
					c1-0.9,2.3-1.4,3.5-1.3c2.7,0.1,5,2.6,4.9,5.2C84.4,85.1,83.8,86.3,82.8,87.2z"/>
				<path class="st0" d="M38.3,76.4L38.3,76.4c-4,0-7.3,3.3-7.3,7.3c0,2,0.7,3.9,2.1,5.2c1.4,1.4,3.3,2.1,5.3,2.1
					c4.1-0.1,7.1-3.2,7.1-7.2C45.5,79.7,42.2,76.4,38.3,76.4z M38.3,88.6C38.3,88.6,38.2,88.6,38.3,88.6c-1.4,0-2.6-0.5-3.6-1.4
					s-1.5-2.2-1.5-3.6s0.5-2.6,1.5-3.6c0.9-1,2.2-1.5,3.5-1.5l0,0c2.7,0,5,2.3,5,5C43.3,86.3,41.1,88.6,38.3,88.6z"/>
			</g>
		</g>
	</g>
</g>
<g id="_x32_" class="st1">
	<g class="st2">
		<g>
			<path class="st3" d="M92.2,43.2c0-3.9-0.9-7.7-2.5-11.2c-6.5-14.6-21-23.1-36.8-21.6c-0.2,0-0.5,0.1-0.7,0.1
				c-0.6,0-1.1-0.3-1.2-1c-0.1-0.7,0.4-1,1-1.1c1.7-0.3,3.3-0.2,5-0.2c18.8,0,35.4,14.4,37.5,34.1c0,0.4,0.1,0.9,0.2,1.3
				c0.6-0.1,0.7-0.6,0.9-0.9c0.3-0.5,0.7-0.7,1.3-0.5c0.5,0.2,0.8,0.8,0.5,1.3c-1.1,2.1-2.2,4.3-3.4,6.3c-0.4,0.7-0.6,0-0.8-0.3
				c-1-1.8-2-3.7-3-5.5c-0.4-0.7-0.6-1.4,0.2-1.8c0.7-0.4,1.2,0.1,1.6,0.7C92,43,92.1,43.1,92.2,43.2z"/>
			<path class="st3" d="M13.6,63.1c0.6,3.2,1.9,6.2,3.7,8.9c5.7,8.7,13.7,14.2,24,16.2c0.9,0.2,2.3,0,2,1.5
				c-0.3,1.3-1.5,0.7-2.4,0.5c-14.6-3.1-24.5-11.7-29.4-25.8c-0.1-0.2-0.1-0.6-0.5-0.7c-0.1,0.3-0.2,0.6-0.4,1
				c-0.2,0.6-0.6,1-1.4,0.8c-0.7-0.2-0.7-0.8-0.6-1.4c0.6-2,1.1-3.9,1.7-5.8c0.1-0.4,0.3-0.8,0.5-1.4c1.8,2.1,3.4,4.1,5.1,6
				c0.3,0.4,0.3,0.9-0.1,1.2c-0.4,0.4-0.9,0.4-1.4,0C14.1,63.7,13.9,63.4,13.6,63.1z"/>
			<g>
				<path class="st3" d="M23.5,45.8c-6,0-11.9,0-17.9,0c-2.1,0-3.1-1-3.1-3c0-9.2,0-18.5,0-27.7c0-2,1-3,3-3c3.3,0,6.5,0,9.8,0
					c0.5,0,0.8-0.1,1-0.6c0.4-1.5,1.4-2.6,2.8-3.3c3-1.6,6.1-1.6,9.1,0c1.4,0.7,2.4,1.9,2.8,3.4c0,0.4,0.3,0.4,0.7,0.4
					c3.3,0,6.6,0,9.8,0c2,0,3,1,3,3c0,9.2,0,18.5,0,27.7c0,2.1-1,3-3.1,3C35.5,45.8,29.5,45.8,23.5,45.8z M42.9,21.7
					c0-2.1,0-4.3,0-6.4c0-1.5-0.1-1.6-1.6-1.6c-11.8,0-23.7,0-35.5,0c-0.2,0-0.4,0-0.6,0c-0.7,0-1,0.3-1,1.1c0,4.6,0,9.3,0,13.9
					c0,0.7,0.3,1,1.1,1c4.5,0,9,0,13.5,0c0.4,0,0.6-0.1,0.7-0.5c0.3-1.2,1.1-1.9,2.3-2c1.2-0.1,2.4-0.1,3.7,0c1.1,0.1,2,0.8,2.2,1.9
					c0.1,0.6,0.4,0.6,0.9,0.6c4.3,0,8.7,0,13,0c1.1,0,1.3-0.2,1.3-1.4C42.9,26.1,42.9,23.9,42.9,21.7z M23.5,44.1c6,0,12,0,18,0
					c1.1,0,1.3-0.2,1.3-1.3c0-3.4,0-6.7,0-10.1c0-1.3,0-1.3-1.3-1.3c-4.4,0-8.7,0-13.1,0c-0.5,0-0.8,0.1-0.9,0.7
					c-0.2,1.1-1.1,1.8-2.2,1.9c-1.2,0.1-2.5,0.1-3.7,0c-1.1-0.1-1.9-0.7-2.2-1.7c-0.2-0.7-0.5-0.8-1.1-0.8c-4.5,0-9,0-13.5,0
					c-0.6,0-0.7,0.1-0.7,0.7c0,3.5,0,7.1,0,10.6c0,1.3,0.2,1.4,1.5,1.4C11.6,44.1,17.6,44.1,23.5,44.1z M23.5,12c1.8,0,3.5,0,5.3,0
					c0.5,0,0.6-0.1,0.4-0.6c-0.4-0.7-0.9-1.3-1.5-1.7c-2.3-1.4-4.6-1.5-7.1-0.5c-1,0.4-1.9,1-2.4,2c-0.4,0.7-0.3,0.7,0.4,0.7
					C20.1,12,21.8,12,23.5,12z M23.5,28.9L23.5,28.9c-0.5,0-1.1,0-1.6,0s-0.8,0.3-0.9,0.8c0,0.6,0,1.1,0,1.7c0,0.5,0.3,0.8,0.8,0.8
					c1.1,0,2.2,0,3.3,0c0.6,0,0.9-0.4,0.9-1c-0.1-0.8,0.5-1.9-0.7-2.3c-0.2-0.1-0.3,0-0.5,0C24.4,28.9,24,28.9,23.5,28.9z"/>
			</g>
			<g>
				<path class="st3" d="M74.2,93.1c-6,0-11.9,0-17.9,0c-2.1,0-3.1-1-3.1-3c0-9.2,0-18.5,0-27.7c0-2,1-3,3-3c3.3,0,6.5,0,9.8,0
					c0.5,0,0.8-0.1,1-0.6c0.4-1.5,1.4-2.6,2.8-3.3c3-1.6,6.1-1.6,9.1,0c1.4,0.7,2.4,1.9,2.8,3.4c0.1,0.5,0.4,0.5,0.8,0.5
					c3.3,0,6.6,0,9.8,0c2,0,3,1,3,3c0,9.2,0,18.5,0,27.7c0,2.1-1,3-3.1,3C86.2,93.1,80.2,93.1,74.2,93.1z M93.6,69.1
					c0-2.1,0-4.3,0-6.4c0-1.5-0.1-1.6-1.6-1.6c-11.8,0-23.7,0-35.5,0c-0.2,0-0.4,0-0.6,0c-0.7,0-1,0.3-1,1.1c0,4.6,0,9.3,0,13.9
					c0,0.7,0.3,1,1.1,1c4.5,0,9,0,13.5,0c0.4,0,0.6-0.1,0.7-0.5c0.3-1.2,1.1-1.9,2.3-2c1.2-0.1,2.4-0.1,3.7,0c1.1,0.1,2,0.8,2.2,1.9
					c0.1,0.6,0.4,0.6,0.9,0.6c4.3,0,8.7,0,13,0c1.1,0,1.3-0.2,1.3-1.4C93.6,73.5,93.6,71.3,93.6,69.1z M74.3,91.4c6,0,12,0,18,0
					c1.1,0,1.3-0.2,1.3-1.3c0-3.4,0-6.7,0-10.1c0-1.3,0-1.3-1.3-1.3c-4.4,0-8.7,0-13.1,0c-0.5,0-0.8,0.1-0.9,0.7
					c-0.2,1.1-1.1,1.8-2.2,1.9c-1.2,0.1-2.5,0.1-3.7,0c-1.1-0.1-1.9-0.7-2.2-1.7c-0.2-0.7-0.5-0.8-1.1-0.8c-4.5,0-9,0-13.5,0
					c-0.6,0-0.7,0.1-0.7,0.7c0,3.5,0,7.1,0,10.6c0,1.3,0.2,1.4,1.5,1.4C62.3,91.4,68.3,91.4,74.3,91.4z M74.2,59.3
					c1.8,0,3.5,0,5.3,0c0.5,0,0.6-0.1,0.4-0.6C79.5,58,79,57.4,78.4,57c-2.3-1.4-4.6-1.5-7.1-0.5c-1,0.4-1.9,1-2.4,2
					c-0.4,0.7-0.3,0.7,0.4,0.7C70.9,59.3,72.5,59.3,74.2,59.3z M74.2,76.2L74.2,76.2c-0.5,0-1.1,0-1.6,0s-0.8,0.3-0.9,0.8
					c0,0.6,0,1.1,0,1.7c0,0.5,0.3,0.8,0.8,0.8c1.1,0,2.2,0,3.3,0c0.6,0,0.9-0.4,0.9-1c-0.1-0.8,0.5-1.9-0.7-2.3
					c-0.2-0.1-0.3,0-0.5,0C75.1,76.2,74.7,76.2,74.2,76.2z"/>
			</g>
		</g>
	</g>
</g>
<g id="_x33_" class="st1">
	<g class="st2">
		<g>
			<path class="st4" d="M82.4,45.1c0-3.5-0.9-6.9-2.3-10.1c-5.8-13.1-18.9-20.8-33.2-19.4c-0.2,0-0.4,0.1-0.6,0c-0.6,0-1-0.3-1-0.9
				c-0.1-0.6,0.3-0.9,0.9-1c1.5-0.3,3-0.2,4.5-0.2c16.9,0,31.9,13,33.8,30.7c0,0.4,0.1,0.8,0.2,1.2c0.5-0.1,0.6-0.5,0.8-0.8
				c0.3-0.4,0.7-0.7,1.2-0.4c0.5,0.2,0.7,0.7,0.5,1.1c-1,1.9-2,3.8-3.1,5.7c-0.4,0.6-0.6,0-0.7-0.3c-0.9-1.6-1.8-3.3-2.7-5
				c-0.3-0.6-0.6-1.2,0.2-1.6c0.6-0.3,1.1,0.1,1.4,0.6C82.2,44.9,82.3,45,82.4,45.1z"/>
			<path class="st4" d="M11.5,63c0.5,2.9,1.7,5.6,3.3,8c5.2,7.9,12.3,12.8,21.6,14.6c0.8,0.1,2.1,0,1.8,1.3
				c-0.3,1.2-1.4,0.7-2.1,0.5c-13.2-2.8-22-10.6-26.5-23.3c-0.1-0.2,0-0.5-0.4-0.6c-0.1,0.3-0.2,0.6-0.3,0.9
				c-0.2,0.6-0.6,0.9-1.2,0.7c-0.6-0.2-0.7-0.7-0.5-1.2c0.5-1.8,1-3.5,1.6-5.3c0.1-0.4,0.2-0.7,0.4-1.3c1.6,1.9,3.1,3.7,4.6,5.4
				c0.3,0.4,0.2,0.8-0.1,1.1c-0.4,0.3-0.8,0.4-1.2,0C12,63.6,11.8,63.3,11.5,63z"/>
			<g>
				<path class="st4" d="M20.4,47.4c-5.4,0-10.8,0-16.1,0c-1.9,0-2.8-0.9-2.8-2.7c0-8.3,0-16.7,0-25c0-1.8,0.9-2.7,2.7-2.7
					c2.9,0,5.9,0,8.8,0c0.4,0,0.7-0.1,0.9-0.6c0.4-1.3,1.3-2.3,2.5-2.9c2.7-1.4,5.5-1.4,8.2,0c1.2,0.7,2.2,1.7,2.5,3.1
					c0.1,0.5,0.4,0.4,0.7,0.4c3,0,5.9,0,8.9,0c1.8,0,2.7,0.9,2.7,2.7c0,8.3,0,16.7,0,25c0,1.9-0.9,2.7-2.8,2.7
					C31.2,47.4,25.8,47.4,20.4,47.4z M37.9,25.7c0-1.9,0-3.9,0-5.8c0-1.3-0.1-1.5-1.4-1.5c-10.7,0-21.3,0-32,0c-0.2,0-0.4,0-0.5,0
					c-0.7,0-0.9,0.3-0.9,1c0,4.2,0,8.4,0,12.6c0,0.7,0.3,0.9,1,0.9c4.1,0,8.1,0,12.2,0c0.4,0,0.5-0.1,0.6-0.5c0.2-1.1,1-1.7,2.1-1.8
					c1.1,0,2.2-0.1,3.3,0c1,0.1,1.8,0.7,2,1.7c0.1,0.6,0.4,0.6,0.8,0.6c3.9,0,7.8,0,11.8,0c1,0,1.2-0.2,1.2-1.2
					C37.9,29.7,37.9,27.7,37.9,25.7z M20.5,45.9c5.4,0,10.8,0,16.3,0c1,0,1.2-0.2,1.2-1.2c0-3,0-6.1,0-9.1c0-1.2,0-1.2-1.2-1.2
					c-3.9,0-7.8,0-11.8,0c-0.5,0-0.7,0.1-0.8,0.6c-0.2,1-1,1.6-2,1.7c-1.1,0-2.2,0.1-3.4,0c-1,0-1.7-0.6-2-1.6
					c-0.2-0.7-0.5-0.7-1-0.7c-4.1,0-8.1,0-12.2,0C3.1,34.4,3,34.5,3,35c0,3.2,0,6.4,0,9.5c0,1.1,0.2,1.3,1.3,1.3
					C9.7,45.9,15.1,45.9,20.5,45.9z M20.4,16.9c1.6,0,3.2,0,4.8,0c0.4,0,0.5-0.1,0.3-0.5c-0.3-0.6-0.8-1.1-1.4-1.5
					c-2-1.2-4.2-1.3-6.4-0.5c-0.9,0.4-1.7,0.9-2.2,1.8c-0.3,0.6-0.3,0.7,0.4,0.7C17.4,16.9,18.9,16.9,20.4,16.9z M20.4,32.2
					L20.4,32.2c-0.5,0-1,0-1.5,0s-0.8,0.3-0.8,0.8s0,1,0,1.5c0,0.4,0.3,0.7,0.7,0.7c1,0,2,0,3,0c0.5,0,0.8-0.4,0.8-0.9
					c-0.1-0.7,0.5-1.7-0.6-2.1c-0.1-0.1-0.3,0-0.5,0S20.8,32.2,20.4,32.2z"/>
			</g>
			<path class="st4" d="M88.9,60.4c5.3,0,9.6,4.3,9.6,9.7c0,5.2-4.5,9.6-9.7,9.5c-5.4,0-9.6-4.4-9.5-9.8
				C79.3,64.6,83.6,60.4,88.9,60.4z M88.8,61.8c-4.4,0-8.1,3.6-8.1,8c0,4.6,3.7,8.3,8.2,8.2c4.4,0,8.1-3.7,8.1-8
				C97,65.5,93.3,61.8,88.8,61.8z"/>
			<path class="st4" d="M88.9,66.2c-0.8,0-1.3,0.3-1.5,1.1c-0.2,0.8,0.1,1.3,0.8,1.6c0.5,0.2,0.9,0.4,1.4,0.6
				c1.3,0.5,2.2,1.3,2.3,2.7c0.1,1.4-0.6,2.4-1.9,2.9c-0.4,0.2-0.4,0.4-0.4,0.7c0,0.5-0.2,0.8-0.7,0.8s-0.8-0.3-0.8-0.8
				s-0.2-0.6-0.6-0.8c-1-0.5-1.6-1.3-1.7-2.4c-0.1-0.5,0-0.9,0.6-1c0.5-0.1,0.8,0.3,0.8,0.7c0.1,0.6,0.3,1.1,1,1.4s1.6,0,1.9-0.7
				c0.4-0.8,0.1-1.5-0.7-1.9c-0.7-0.3-1.4-0.6-2.1-0.9c-1-0.5-1.7-1.4-1.6-2.6s0.6-2.1,1.8-2.6c0.3-0.2,0.6-0.3,0.5-0.7
				c0-0.5,0.2-0.8,0.7-0.8s0.7,0.3,0.7,0.8s0.2,0.6,0.6,0.8c1,0.5,1.6,1.3,1.7,2.4c0.1,0.5,0,0.9-0.6,1c-0.5,0.1-0.8-0.2-0.8-0.7
				C90.3,66.8,89.8,66.2,88.9,66.2z"/>
			<path class="st4" d="M77.2,78.3c0-1.8-0.8-3.2-2.2-4.4c-1.4-1.2-2.9-2.4-4.3-3.5c-0.2-0.2-0.5-0.3-0.7-0.4
				c1.1-1.6,1.8-3.6,1.8-5.6c0-5.6-4.5-10.1-10-10.1c-5.4,0-10,4.5-10,9.8c0,2.2,0.7,4.3,1.8,5.9c-0.2,0.1-0.5,0.2-0.7,0.4
				c-1.3,1.1-2.7,2.2-4,3.3c-1.6,1.4-2.4,3.1-2.4,5.3c0,1.5,0,3,0,4.5h1.8c0-1.4,0-2.9,0-4.3c0-1.7,0.7-3.1,2-4.1s2.6-2.1,3.9-3.1
				c0.2-0.2,0.4-0.4,0.6-0.6c1.8,1.8,4.3,3,7.1,3s5.4-1.2,7.2-3.1c0.1,0.2,0.3,0.5,0.6,0.7c1.3,1.1,2.6,2.2,4,3.2
				c1.2,0.9,1.8,2.2,1.8,3.7c0,1.6,0,3.2,0,4.8h1.9C77.3,81.8,77.2,80.1,77.2,78.3z M61.7,72.6c-4.6-0.1-8.1-3.8-8-8.5
				c0.1-4.3,3.9-7.9,8.3-7.8c4.5,0.1,8.2,3.9,8,8.3C69.9,69,66.1,72.6,61.7,72.6z"/>
		</g>
	</g>
</g>
</svg>
