<?xml version="1.0" encoding="utf-8"?>
<!-- Generator: Adobe Illustrator 26.0.0, SVG Export Plug-In . SVG Version: 6.00 Build 0)  -->
<svg version="1.1" id="Capa_1" xmlns="http://www.w3.org/2000/svg" xmlns:xlink="http://www.w3.org/1999/xlink" x="0px" y="0px"
	 viewBox="0 0 1024 408.86" style="enable-background:new 0 0 1024 408.86;" xml:space="preserve">
<style type="text/css">
	.st0{opacity:0.2;}
	.st1{fill:#262B5F;}
	.st2{filter:url(#Adobe_OpacityMaskFilter);}
	.st3{filter:url(#Adobe_OpacityMaskFilter_00000074432086367970478770000009957707273580596158_);}
	.st4{mask:url(#SVGID_1_);fill:url(#SVGID_00000056385179127938325800000016922323106168996014_);}
	.st5{fill:url(#SVGID_00000146476302847653926080000012211921464834989964_);}
	.st6{fill:#CDCCCC;}
	.st7{fill:#F39200;}
	.st8{fill:#DEDEDE;}
	.st9{fill:#808181;}
	.st10{fill:#9A9999;}
	.st11{fill:#FBD0BB;}
	.st12{fill:#E7E6E6;}
	.st13{fill:#F2F2F2;}
	.st14{fill:#FFFFFF;}
	.st15{opacity:0.6;}
	.st16{fill:#EF782B;}
	.st17{fill:#EB5661;}
	.st18{opacity:0.3;}
	.st19{fill:#B199C5;}
	.st20{fill:#3B2563;}
	.st21{fill:#C4DAF0;}
	.st22{opacity:0.15;}
	.st23{fill:#F59D1D;}
	.st24{fill:#EA528A;}
	.st25{fill:#BB5421;}
	.st26{fill:#ED699F;}
	.st27{fill:#F39C9E;}
	.st28{fill:#994F32;}
	.st29{fill:#36AD68;}
</style>
<g>
	<g class="st0">
		<ellipse class="st1" cx="508.52" cy="332.99" rx="448.66" ry="24.99"/>
	</g>
	<g>
		<defs>
			<filter id="Adobe_OpacityMaskFilter" filterUnits="userSpaceOnUse" x="70.15" y="116.35" width="51.7" height="116.8">
				<feFlood  style="flood-color:white;flood-opacity:1" result="back"/>
				<feBlend  in="SourceGraphic" in2="back" mode="normal"/>
			</filter>
		</defs>
		<mask maskUnits="userSpaceOnUse" x="70.15" y="116.35" width="51.7" height="116.8" id="SVGID_1_">
			<g class="st2">
				<defs>
					
						<filter id="Adobe_OpacityMaskFilter_00000010276778337591865010000000091005582981352374_" filterUnits="userSpaceOnUse" x="70.15" y="116.35" width="51.7" height="116.8">
						<feFlood  style="flood-color:white;flood-opacity:1" result="back"/>
						<feBlend  in="SourceGraphic" in2="back" mode="normal"/>
					</filter>
				</defs>
				<mask maskUnits="userSpaceOnUse" x="70.15" y="116.35" width="51.7" height="116.8" id="SVGID_1_">
				</mask>
				
					<linearGradient id="SVGID_00000014594161690566857740000007650842512048737213_" gradientUnits="userSpaceOnUse" x1="70.1482" y1="174.746" x2="121.8488" y2="174.746">
					<stop  offset="0" style="stop-color:#000000"/>
					<stop  offset="0.0167" style="stop-color:#070707"/>
					<stop  offset="0.1784" style="stop-color:#484848"/>
					<stop  offset="0.3378" style="stop-color:#808080"/>
					<stop  offset="0.4909" style="stop-color:#ADADAD"/>
					<stop  offset="0.6364" style="stop-color:#D1D1D1"/>
					<stop  offset="0.7726" style="stop-color:#EAEAEA"/>
					<stop  offset="0.8957" style="stop-color:#FAFAFA"/>
					<stop  offset="0.9944" style="stop-color:#FFFFFF"/>
				</linearGradient>
				<path style="mask:url(#SVGID_1_);fill:url(#SVGID_00000014594161690566857740000007650842512048737213_);" d="M113.49,233.15
					H78.51c-4.62,0-8.36-3.74-8.36-8.36V124.71c0-4.62,3.74-8.36,8.36-8.36h34.98c4.62,0,8.36,3.74,8.36,8.36v100.08
					C121.85,229.4,118.11,233.15,113.49,233.15z"/>
			</g>
		</mask>
		
			<linearGradient id="SVGID_00000023239767720384929380000015252882622977177758_" gradientUnits="userSpaceOnUse" x1="70.1482" y1="174.746" x2="121.8488" y2="174.746">
			<stop  offset="0" style="stop-color:#FFFFFF"/>
			<stop  offset="0.281" style="stop-color:#F0F0F0"/>
			<stop  offset="0.6765" style="stop-color:#E0E0E0"/>
			<stop  offset="0.9944" style="stop-color:#DBDBDB"/>
		</linearGradient>
		<path style="fill:url(#SVGID_00000023239767720384929380000015252882622977177758_);" d="M113.49,233.15H78.51
			c-4.62,0-8.36-3.74-8.36-8.36V124.71c0-4.62,3.74-8.36,8.36-8.36h34.98c4.62,0,8.36,3.74,8.36,8.36v100.08
			C121.85,229.4,118.11,233.15,113.49,233.15z"/>
		<path class="st6" d="M220.79,233.15H103.85c-4.62,0-8.36-3.74-8.36-8.36V124.71c0-4.62,3.74-8.36,8.36-8.36h116.94
			c4.62,0,8.36,3.74,8.36,8.36v100.08C229.15,229.4,225.41,233.15,220.79,233.15z"/>
		<path class="st7" d="M228.24,233.15H111.3c-4.62,0-8.36-3.74-8.36-8.36V124.71c0-4.62,3.74-8.36,8.36-8.36h116.94
			c4.62,0,8.36,3.74,8.36,8.36v100.08C236.6,229.4,232.86,233.15,228.24,233.15z"/>
		<ellipse class="st8" cx="169.89" cy="174.93" rx="38.19" ry="38.13"/>
		<path class="st6" d="M169.89,136.8c-0.96,0-1.92,0.05-2.87,0.12c19.75,1.46,35.32,17.92,35.32,38.01
			c0,20.1-15.57,36.55-35.32,38.01c0.95,0.07,1.9,0.12,2.87,0.12c21.09,0,38.19-17.07,38.19-38.13
			C208.08,153.87,190.98,136.8,169.89,136.8z"/>
		<g>
			<path class="st9" d="M154.69,174.93c0,3.22-2.62,5.84-5.84,5.84s-5.84-2.61-5.84-5.84c0-3.22,2.62-5.84,5.84-5.84
				S154.69,171.71,154.69,174.93z"/>
			<path class="st9" d="M190.43,174.93c0,3.22-2.62,5.84-5.84,5.84c-3.23,0-5.84-2.61-5.84-5.84c0-3.22,2.62-5.84,5.84-5.84
				C187.81,169.09,190.43,171.71,190.43,174.93z"/>
		</g>
		<g>
			<path class="st10" d="M148.84,169.09c-0.37,0-0.74,0.04-1.1,0.11c2.7,0.51,4.75,2.88,4.75,5.73c0,2.85-2.05,5.22-4.75,5.73
				c0.36,0.07,0.72,0.11,1.1,0.11c3.23,0,5.84-2.61,5.84-5.84C154.69,171.71,152.07,169.09,148.84,169.09z"/>
			<path class="st10" d="M184.58,169.09c-0.37,0-0.74,0.04-1.1,0.11c2.7,0.51,4.75,2.88,4.75,5.73c0,2.85-2.05,5.22-4.75,5.73
				c0.36,0.07,0.72,0.11,1.1,0.11c3.23,0,5.84-2.61,5.84-5.84C190.43,171.71,187.81,169.09,184.58,169.09z"/>
		</g>
	</g>
	<g>
		<g>
			<path class="st11" d="M226.18,263.98c3.3-1.98,6.87-2.12,7.96-0.31c1.09,1.82-0.7,4.9-4.01,6.89c-3.3,1.99-6.87,2.12-7.96,0.31
				C221.08,269.05,222.87,265.97,226.18,263.98z"/>
		</g>
		<path class="st6" d="M260.91,240.39c0.28-1.5,1.15-2.83,2.42-3.68l14.95-10c1.21-0.81,1.54-2.45,0.73-3.66l-0.15-0.23
			c0.17-0.11,0.34-0.23,0.5-0.36c0.06-0.05,2.49-1.97,6.63-4.13l-5.7-12.07c-4.58,2.35-7.68,4.59-8.85,5.49l-0.17-0.25
			c-0.81-1.21-2.45-1.54-3.66-0.73l-9.32,6.23l6.89,7.84l-39.53,39.05l5.4,6.98l27.65-18.38L260.91,240.39z"/>
		<path class="st12" d="M578.85,280.32c-12.18,4.83-21.42,5.36-28.25,1.63c-13.55-7.4-18.45-32.42-23.19-56.62
			c-4.04-20.62-151.19,27.05-161.05,12.46c-15.72-23.24-33.87-36.51-53.96-39.45c-26.4-3.85-45.96,11.87-46.78,12.55
			c-2.83,2.32-3.25,6.5-0.94,9.34c2.31,2.85,6.5,3.28,9.36,0.97c0.16-0.13,16.07-12.74,36.6-9.66c16.16,2.42,31.2,13.76,44.68,33.7
			c8.35,12.34,155.23-36.68,159.01-17.36c5.57,28.46,10.84,55.35,29.87,65.75c10.52,5.75,23.45,5.44,39.54-0.94"/>
		<path class="st13" d="M274.05,221.21c0.04-0.04,1.3-1.03,3.53-2.39l-9.73-9.57c-1.3,0.9-2.07,1.52-2.22,1.64
			c-2.83,2.32-3.25,6.5-0.94,9.34C267.01,223.09,271.2,223.52,274.05,221.21z"/>
		<g>
			<path class="st8" d="M177.08,278.77c-3,2-3.8,6.05-1.8,9.04c2,2.99,6.05,3.79,9.05,1.79l36.18-24.2l-7.24-10.83L177.08,278.77z"
				/>
			<path class="st8" d="M177.31,258.35c-3,2-3.8,6.05-1.8,9.04c2,2.99,6.05,3.79,9.05,1.79l28.8-19.26l-7.24-10.83L177.31,258.35z"
				/>
			<path class="st13" d="M213.3,270.22l7.21-4.82l-7.24-10.83l-7.44,4.98C208.36,263.33,210.87,266.91,213.3,270.22z"/>
			<path class="st13" d="M203.71,256.37l8.96-5.99c-2.58-3.79-5.13-7.35-7.57-10.61l-8.3,5.55
				C198.87,248.82,201.2,252.54,203.71,256.37z"/>
			<path class="st13" d="M262.31,209.52l-14.95,10c-1.27,0.85-2.83,1.15-4.33,0.83l-37.65-8.06c-3.16-0.68-6.47-0.04-9.16,1.75
				l-6.95,4.65c-2.48,1.66,6.11,18.85,19.18,38.39c13.07,19.55,25.68,34.04,28.16,32.39l6.95-4.65c2.69-1.8,4.54-4.61,5.12-7.79
				l6.93-37.88c0.28-1.5,1.15-2.83,2.42-3.68l14.95-10c1.21-0.81,1.54-2.45,0.73-3.66l-7.73-11.56
				C265.16,209.03,263.52,208.71,262.31,209.52z"/>
			<path class="st13" d="M225.27,216.55l-4.02,4.68l0.18,0.18c0,0,0,0,0,0c-2.75,2.7-3.78,6.11-2.3,7.63
				c1.48,1.51,4.89,0.56,7.63-2.11l0.26,0.27l9.86-8.17L225.27,216.55z"/>
		</g>
	</g>
	<g>
		<g>
			<path class="st14" d="M418.08,221.71l-1.72,19.87l-3.57,41.29l-0.66,7.64c-2.43,0.88-4.8,1.65-7.13,2.3
				c-63.39,17.88-92.02-45.58-92.02-45.58c-30.03,0-41.56-24.6-33.44-43.63c1.75-4.14,4.45-8.01,8.09-11.31
				c5.8-5.29,14.01-9.1,24.65-10.18c35.29-3.6,57.38,32.18,71.4,37.18c6.67,2.39,14.78,3.05,21.45,3.09
				C412.48,222.42,418.08,221.71,418.08,221.71z"/>
		</g>
		<g class="st15">
			<path class="st14" d="M418.08,221.71l-1.72,19.87l-19.76-5.92c-30.21,1.19-30.75-18.84-59.78-37.73
				c-19.28-12.56-43.3-2.5-57.28,5.67c1.75-4.14,4.45-8.01,8.09-11.31c5.8-5.29,14.01-9.1,24.65-10.18
				c35.29-3.6,57.38,32.18,71.4,37.18c6.67,2.39,14.78,3.05,21.45,3.09C412.48,222.42,418.08,221.71,418.08,221.71z"/>
		</g>
		<g>
			<path class="st1" d="M312.49,242.24c0.57,0.05,1.46,0.08,2.23,0.08c0.8,0.01,1.62-0.02,2.44-0.05c0.82-0.03,1.64-0.11,2.46-0.16
				l2.46-0.27c3.28-0.43,6.53-1.17,9.7-2.17c1.6-0.46,3.12-1.11,4.68-1.71l2.26-1.06c0.37-0.18,0.76-0.35,1.13-0.54l1.08-0.62
				c2.97-1.55,5.61-3.61,8.2-5.75l0.15-0.12c1.1-0.91,2.74-0.76,3.65,0.35c0.85,1.03,0.77,2.51-0.13,3.45
				c-2.59,2.7-5.32,5.35-8.45,7.47l-1.15,0.83c-0.39,0.26-0.8,0.5-1.2,0.75c-0.81,0.49-1.61,1-2.42,1.48
				c-1.67,0.88-3.33,1.8-5.08,2.54c-3.46,1.54-7.06,2.79-10.75,3.71l-2.79,0.63c-0.94,0.17-1.87,0.36-2.82,0.51
				c-0.95,0.15-1.9,0.29-2.87,0.39c-1,0.11-1.88,0.19-3.09,0.23l-0.01,0c-2.75,0.08-5.05-2.09-5.13-4.84
				c-0.08-2.75,2.09-5.05,4.84-5.13C312.08,242.21,312.3,242.22,312.49,242.24z"/>
		</g>
		<g>
			<path class="st1" d="M383.17,300.95c-21.87,0-38.38-9.41-49.5-18.94c-13.07-11.21-20.82-24.21-23.81-29.87
				c-24.8-1.33-36.97-18.44-37.78-34.39c-0.89-17.5,11.15-37.67,39.7-40.58c26.31-2.68,45.41,14.28,59.35,26.67
				c5.51,4.9,10.71,9.52,14.23,10.78c12.71,4.53,31.91,2.19,32.1,2.17c1.49-0.19,2.99,0.31,4.07,1.35c1.08,1.04,1.64,2.52,1.51,4.02
				l-5.95,68.79c-0.17,1.93-1.44,3.58-3.25,4.25C402.66,299.26,392.43,300.95,383.17,300.95z M317.26,186.84
				c-1.47,0-2.96,0.07-4.47,0.23c-22.08,2.25-31.43,17.22-30.77,30.17c0.63,12.46,10.45,25.03,30.96,25.03
				c1.96,0,3.73,1.15,4.54,2.93c0.07,0.16,7.58,16.44,22.89,29.47c19.28,16.41,41.82,20.51,67.04,12.2l5.16-59.69
				c-7.48,0.42-20.41,0.45-30.6-3.19c-5.34-1.9-10.71-6.67-17.5-12.71C352.17,200.3,337.02,186.84,317.26,186.84z"/>
		</g>
		<g>
			<path class="st14" d="M837.02,319.51c-38.28,4.93-84.72-8.29-82.69-38.71c0,0-22.2,29.34-49.45,36
				c-27.25,6.66-71.96,5.74-70.92-17.84c0,0-18.12,5.69-44.67,2.5c-13.75-1.63-29.78-5.65-46.73-14.07
				c-6.23-3.09-12.61-6.77-19.03-11.16c-0.01-0.01-22.59-59.03,20.86-118.65c0,0,4.45-11.71,15.43-27
				c8.6-11.97,21.2-26.12,38.82-38.55c24.5-17.31,58.71-31.25,105.3-31.25c94.43,0,141.85,70.26,154.45,101.09
				c0,0,33.55,10.81,49.71,45.41c2.36,5.05,4.34,10.63,5.81,16.74c0.58,2.43,1.08,4.94,1.48,7.55
				C922.74,279.13,882.45,313.66,837.02,319.51z"/>
		</g>
		<g class="st15">
			<path class="st14" d="M689.52,186.48c0,0,74.61,43.92,68.77,90.22C758.29,276.7,787.54,217.54,689.52,186.48z"/>
		</g>
		<g class="st15">
			<path class="st14" d="M913.93,224.01c-21.37-35.08-63.26-52.81-63.26-52.81c-34.31-60.6-77.93-89.33-133.84-93.91
				c0.1,0.32,0.15,0.65,0.15,0.98c0,4.43-8.54,8.01-19.06,8.01c-10.54,0-19.08-3.58-19.08-8.01c-47.11,7.23-97.41,36.48-119,52.3
				c8.6-11.97,21.2-26.12,38.82-38.55c24.5-17.31,58.71-31.25,105.3-31.25c94.43,0,141.85,70.26,154.45,101.09
				c0,0,33.55,10.81,49.71,45.41C910.48,212.32,912.46,217.9,913.93,224.01z"/>
		</g>
		<g>
			<path class="st16" d="M826.21,250.81c7.35,2.74,12.81,9.32,15.71,16.61c2.9,7.29,3.51,15.29,3.51,23.14
				c-0.01,8.66-0.74,17.32-2.18,25.86c-0.21,1.24-0.47,2.55-1.33,3.47c-1.06,1.13-2.74,1.36-4.29,1.51
				c-15.22,1.48-30.8,1.19-45.5-3.03s-28.51-12.63-37.36-25.1c-0.8-1.13-1.58-2.36-1.63-3.74c-0.04-1.15,0.43-2.25,0.89-3.3
				c2.3-5.25,4.6-10.5,6.9-15.75c1.93-4.41,3.99-8.99,7.74-12c3.69-2.96,8.51-4,13.14-4.95c15.16-3.12,30.95-6.23,45.95-2.41
				c0.79,0.2,1.75,0.66,1.67,1.47c-0.08,0.81-1.72,0.07-0.98-0.27"/>
		</g>
		<g>
			<path class="st1" d="M820.98,327.07c-22.25,0-46.55-5.39-60.76-18.75c-4.5-4.23-7.65-9.05-9.38-14.29
				c-9.08,9.65-25.59,24.49-44.79,29.18c-19.28,4.71-53.65,7.04-69.33-5.85c-3.58-2.94-5.97-6.55-7.06-10.64
				c-15.65,3.23-60.51,8.28-108.94-24.81c-0.25-0.17-0.49-0.37-0.71-0.59c-1.19-1.19-2.6-5.43-4.19-12.6
				c-1.36-6.13-3.01-15.94-3.13-27.84c-0.2-20.9,4.38-52.41,27.3-84.14c1.69-4.16,11.55-26.76,34.65-49.53
				c23.06-22.73,64.21-49.84,129.3-49.84c90.34,0,141.44,63.23,158.2,102.14c10.08,3.91,50.4,22.55,58.18,72.88
				c3.13,20.27-1.71,39.61-14,55.95c-15.04,20-40.71,34.09-68.67,37.7C832.38,326.7,826.75,327.07,820.98,327.07z M754.33,277.39
				c0.58,0,1.17,0.1,1.74,0.32c2.06,0.77,3.37,2.8,3.23,4.99c-0.46,6.92,2.15,13.09,7.75,18.36c13.23,12.44,41.75,18.65,69.34,15.09
				c25.35-3.27,48.52-15.91,61.99-33.81c10.63-14.14,14.82-30.89,12.11-48.45c-7.75-50.2-51.75-65.12-53.62-65.73
				c-1.39-0.45-2.52-1.5-3.07-2.85c-14.88-36.4-63.19-98-149.85-98c-49.38,0-90.42,15.7-121.99,46.65
				c-23.63,23.17-32.82,46.71-32.91,46.95c-0.16,0.41-0.37,0.8-0.63,1.16c-37.72,51.78-23.62,103.47-20.71,112.53
				c54.19,36.22,104.28,21.33,104.78,21.18c1.55-0.48,3.24-0.18,4.52,0.81c1.28,0.99,2.01,2.54,1.94,4.16
				c-0.16,3.64,1.14,6.47,4.11,8.91c10.83,8.9,39.92,8.94,60.65,3.87c25.17-6.15,46.45-33.89,46.66-34.17
				C751.32,278.1,752.8,277.39,754.33,277.39z M544.39,159.14h0.01H544.39z"/>
		</g>
		<g>
			<path class="st1" d="M699.26,222.17c-0.72,0.45-1.61,1.03-2.39,1.63c-0.81,0.58-1.58,1.24-2.36,1.87
				c-1.52,1.32-2.99,2.71-4.35,4.2c-2.72,2.97-5.11,6.21-6.99,9.71c-1.88,3.49-3.47,7.13-4.42,10.96c-0.61,1.87-0.86,3.84-1.24,5.75
				c-0.22,0.95-0.23,1.95-0.34,2.93l-0.27,2.93c-0.18,1.93-1.47,3.49-3.19,4.1l-0.81,0.29l0,0c-0.36,0.07-0.98,0.22-1.48,0.36
				l-1.6,0.45c-1.07,0.32-2.14,0.68-3.21,1.05c-2.12,0.77-4.2,1.65-6.22,2.65c-4.03,1.98-7.76,4.44-10.96,7.36
				c-1.61,1.45-3.05,3.04-4.32,4.73c-1.28,1.68-2.39,3.48-3.26,5.38c-0.49,0.93-0.81,1.93-1.2,2.89c-0.28,1.01-0.66,1.99-0.85,3.03
				c-0.53,2.04-0.71,4.17-0.87,6.3l-0.02,0.21c-0.2,2.74-2.58,4.8-5.32,4.6c-2.7-0.19-4.74-2.52-4.61-5.21
				c0.27-5.45,1.42-11.03,3.87-16.07c1.17-2.54,2.64-4.93,4.31-7.13c1.66-2.21,3.52-4.25,5.54-6.08c4.02-3.67,8.54-6.61,13.27-8.94
				c2.37-1.17,4.79-2.2,7.25-3.09c1.24-0.44,2.48-0.86,3.75-1.23c0.64-0.19,1.27-0.37,1.92-0.54c0.68-0.17,1.25-0.32,2.08-0.49
				l0.01,0l-4,4.39l0.65-3.4c0.24-1.13,0.38-2.27,0.74-3.37c0.65-2.22,1.19-4.45,2.11-6.58c1.56-4.33,3.82-8.39,6.36-12.17
				c2.55-3.79,5.62-7.19,8.98-10.2c1.68-1.51,3.46-2.9,5.3-4.19c0.94-0.62,1.87-1.26,2.85-1.83c0.98-0.6,1.93-1.11,3.09-1.67
				c1.23-0.59,2.7-0.08,3.29,1.15c0.55,1.14,0.14,2.5-0.91,3.16L699.26,222.17z"/>
		</g>
		<g>
			<path class="st1" d="M670.74,256.81c0.96-0.17,1.63-0.24,2.41-0.32c0.75-0.07,1.5-0.12,2.24-0.16c1.48-0.07,2.95-0.06,4.42-0.01
				c2.94,0.13,5.86,0.52,8.73,1.19c2.87,0.64,5.68,1.67,8.32,2.97c2.69,1.24,5.09,3.03,7.34,4.89c1.18,0.97,1.35,2.71,0.38,3.89
				c-0.88,1.07-2.4,1.31-3.56,0.61l-0.23-0.14c-2.08-1.25-4.18-2.44-6.5-3.13c-2.28-0.74-4.64-1.27-7.05-1.46
				c-2.4-0.22-4.83-0.21-7.24,0.02c-1.2,0.13-2.4,0.28-3.58,0.51c-0.59,0.11-1.17,0.23-1.74,0.37c-0.54,0.13-1.19,0.3-1.53,0.42
				c-2.6,0.94-5.47-0.41-6.4-3.01c-0.94-2.6,0.41-5.47,3.01-6.4c0.26-0.09,0.52-0.16,0.78-0.21L670.74,256.81z"/>
		</g>
		<g>
			<path class="st1" d="M682.92,181.95c6.2,1.14,12.03,2.73,17.91,4.58c5.84,1.89,11.59,4.08,17.2,6.65
				c11.17,5.17,21.92,11.85,30.83,20.89c4.44,4.52,8.37,9.64,11.45,15.32c3.08,5.66,5.27,11.86,6.42,18.23
				c1.19,6.34,1.41,13.12,0,19.68c-0.67,3.28-1.7,6.51-3.12,9.6c-0.72,1.54-1.5,3.06-2.43,4.52c-0.45,0.74-0.95,1.45-1.46,2.17
				c-0.27,0.36-0.52,0.71-0.82,1.08l-0.45,0.55c-0.18,0.2-0.29,0.34-0.58,0.64c-1.91,1.98-5.06,2.04-7.04,0.13
				c-1.96-1.89-2.04-5-0.18-6.99l0.15-0.16l0.18-0.19c0.08-0.08,0.18-0.21,0.27-0.31c0.19-0.21,0.38-0.46,0.57-0.7
				c0.37-0.49,0.76-1,1.1-1.54c0.72-1.06,1.35-2.21,1.94-3.37c1.17-2.35,2.04-4.86,2.65-7.46c0.34-1.29,0.51-2.62,0.72-3.94
				c0.08-0.67,0.12-1.34,0.18-2.01c0.07-0.67,0.11-1.34,0.1-2.02l0.02-2.04l-0.13-2.04c-0.03-1.36-0.3-2.74-0.48-4.11
				c-0.84-5.49-2.54-10.83-5.07-15.8c-2.52-4.98-5.84-9.6-9.71-13.77c-7.77-8.36-17.6-14.93-28.08-20.14
				c-5.26-2.59-10.71-4.85-16.26-6.83c-5.54-1.93-11.3-3.66-16.91-4.85l-0.1-0.02c-1.59-0.34-2.6-1.9-2.26-3.48
				C679.85,182.67,681.36,181.67,682.92,181.95z"/>
		</g>
		<g>
			<path class="st1" d="M727.65,205.15c-0.18-1.35-0.27-2.43-0.36-3.62c-0.08-1.17-0.12-2.32-0.16-3.48
				c-0.07-2.31-0.03-4.62,0.05-6.92c0.23-4.61,0.77-9.2,1.66-13.75c1.79-9.08,4.91-18.04,9.87-26.07
				c4.86-8.05,11.58-15.06,19.46-20.09c7.87-5.06,16.72-8.17,25.62-9.69c1.28-0.22,2.5,0.64,2.72,1.93c0.2,1.15-0.47,2.24-1.54,2.62
				l-0.1,0.03l-3.02,1.07c-1,0.37-2.03,0.64-2.99,1.09c-1.95,0.84-3.92,1.58-5.76,2.6c-3.79,1.79-7.29,4.07-10.57,6.55l-2.39,1.95
				c-0.78,0.66-1.49,1.41-2.25,2.09c-0.37,0.35-0.75,0.69-1.12,1.05l-1.04,1.13c-0.67,0.77-1.43,1.46-2.04,2.28
				c-2.64,3.1-4.88,6.53-6.82,10.11c-3.9,7.17-6.38,15.12-7.85,23.27c-0.74,4.08-1.21,8.22-1.47,12.38
				c-0.11,2.08-0.22,4.16-0.21,6.24c0,1.04,0.01,2.07,0.05,3.1c0.02,1,0.07,2.12,0.13,2.94l0.01,0.17c0.21,2.74-1.85,5.13-4.59,5.33
				C730.32,209.66,728,207.74,727.65,205.15z"/>
		</g>
		<g>
			<path class="st1" d="M867.29,197.14c1.58,3.01,2.79,6.01,3.82,9.17c1.04,3.14,1.8,6.39,2.34,9.72
				c0.98,6.64,0.94,13.83-1.72,20.78c-1.34,3.43-3.34,6.74-5.97,9.48c-2.62,2.75-5.77,4.9-9.05,6.51
				c-3.29,1.61-6.77,2.64-10.02,3.42c-3.31,0.79-6.66,1.34-10.01,1.68c-6.69,0.68-13.34,0.65-19.83,0.26
				c-6.49-0.4-12.85-1.05-19.01-1.53c-6.15-0.45-12.2-0.66-17.48,0.38c-2.63,0.54-5.02,1.39-7.08,2.67
				c-2.05,1.28-3.82,2.99-5.3,5.12l-0.02,0.03c-1.57,2.26-4.67,2.82-6.93,1.25c-2.2-1.52-2.78-4.51-1.37-6.75
				c2-3.17,4.71-6.15,8-8.3c3.27-2.18,6.94-3.55,10.51-4.32c7.18-1.53,13.97-1.18,20.44-0.76c12.93,1,25.17,2.74,37.11,1.72
				c2.97-0.25,5.9-0.66,8.79-1.24c2.94-0.61,5.6-1.33,8.05-2.43c4.91-2.19,8.73-5.78,10.91-10.64c2.23-4.84,2.94-10.71,2.74-16.65
				c-0.18-5.94-1.21-12.13-2.72-18l-0.03-0.12c-0.28-1.1,0.38-2.22,1.48-2.5C865.9,195.86,866.86,196.31,867.29,197.14z"/>
		</g>
		<g>
			<path class="st1" d="M851.45,193.44c3.03,2.8,5.65,5.85,8.08,9.15c2.41,3.3,4.53,6.85,6.32,10.62c1.83,3.75,3.17,7.79,4.09,11.98
				l0.62,3.17l0.33,3.24c0.05,0.54,0.11,1.09,0.15,1.63l0,1.64l-0.01,3.3c-0.01,2.76-2.25,5-5.02,4.99c-2.76-0.01-5-2.25-4.99-5.02
				c0-0.26,0.02-0.52,0.06-0.77l0.07-0.45l0.43-2.61l0.22-1.32c0.04-0.44,0.06-0.89,0.09-1.33l0.18-2.69l-0.08-2.71
				c-0.19-3.62-0.75-7.31-1.83-10.91c-1.03-3.61-2.43-7.17-4.16-10.6c-1.73-3.41-3.79-6.77-6.13-9.78l-0.04-0.06
				c-0.38-0.48-0.29-1.18,0.19-1.55C850.45,193.05,851.06,193.08,851.45,193.44z"/>
		</g>
		<g>
			<path class="st14" d="M589.29,301.45c-8.15,5.08-16.85,9.56-25.94,13.34c-54.65,22.75-132.57,12.79-158.35-21.98
				c-1.85-2.5-3.43-5.13-4.72-7.88c-4.29-9.2-6.45-17.41-7.14-24.66c-0.01-0.01-0.01-0.02-0.01-0.02
				c-1.94-19.86,6.93-32.43,12.01-37.87c1.94-2.09,3.32-3.12,3.32-3.12c-2.17-8.96-2.8-16.7-2.84-22.61
				c-0.05-7.84,0.98-12.48,0.98-12.48c-21.44-7.4-36.19-36.11-36.22-50.87c-0.01-3,0.6-5.43,1.88-6.98
				c15.75-19,64.36-9.17,77.61-6.06c2.15,0.51,3.37,0.83,3.37,0.83c22.16-15.09,58.6-20.16,58.6-20.16s22.35-57.74,53.81-54.88
				c6.53,0.6,12,4.19,16.57,9.52c0,0.01,0,0.01,0,0.01c7.88,9.18,13.08,23.48,16.43,36.42c4.07,15.74,5.38,29.44,5.38,29.44
				s33.12,12.92,45.48,47.24c1.06,2.89,1.95,5.94,2.66,9.13C663.14,226.88,634.51,273.34,589.29,301.45z"/>
		</g>
		<g>
			
				<ellipse transform="matrix(0.9995 -0.0324 0.0324 0.9995 -6.4179 17.0494)" class="st16" cx="523.25" cy="206.7" rx="34.66" ry="38.65"/>
		</g>
		<g class="st15">
			<path class="st14" d="M604.03,121.46c0,0,51.84,63.4,44.96,112.15C648.99,233.61,677.11,161.32,604.03,121.46z"/>
		</g>
		<g class="st15">
			<path class="st14" d="M582.22,55.58c0,0.01,0,0.01,0,0.01c-27.11-16.67-61.86,54.01-61.86,54.01
				c-37.33,6.22-73.96,16.4-73.96,16.4c-30.61-2.66-62.43,3.96-76.02,7.3c-0.01-3,0.6-5.43,1.88-6.98
				c18.3-22.09,80.98-5.23,80.98-5.23c22.16-15.09,58.6-20.16,58.6-20.16s22.35-57.74,53.81-54.88
				C572.18,46.65,577.64,50.25,582.22,55.58z"/>
		</g>
		<g>
			<path class="st17" d="M550.07,107.47c4.69,3.18,12.7,7.15,23.79,7.38c5.24,0.11,9.29-3.87,8.6-8.37
				c-1.3-8.57-4.56-23.08-12.63-37.15c-1.34-2.35-5.08-2.66-6.87-0.61c-4.5,5.14-11.76,15.09-16.32,29.7
				C545.59,101.71,546.89,105.31,550.07,107.47z"/>
		</g>
		<g>
			<path class="st16" d="M455.22,122.46c-7.41,4.37-17.51,11.6-26.75,23.02c-16.66,20.59-20.58,42.53-21.72,52.67l-1.13-1.51
				c-0.05-7.84,0.98-12.48,0.98-12.48c-21.44-7.4-36.19-36.11-36.22-50.87c-0.01-3.28,1.37-5.9,1.88-6.98
				C380.57,108.56,451.44,121.74,455.22,122.46z"/>
		</g>
		<g>
			<path class="st17" d="M372.53,141.75c0,0,26.4-2.8,45.14,12.88c0,0-10.47,13.52-11.26,27.85
				C406.42,182.49,379.96,175.08,372.53,141.75z"/>
		</g>
		<g>
			<path class="st1" d="M574.07,119.59c-0.1,0-0.21,0-0.31,0c-12.17-0.25-21.05-4.6-26.35-8.19c0,0,0,0,0,0
				c-4.86-3.3-6.98-9.1-5.29-14.42c4.91-15.76,12.93-26.43,17.27-31.39c1.86-2.13,4.75-3.23,7.71-2.94c2.92,0.29,5.48,1.9,6.86,4.32
				c8.22,14.33,11.72,29.01,13.21,38.8c0.51,3.32-0.5,6.71-2.78,9.32C581.85,117.96,578.11,119.59,574.07,119.59z M552.73,103.54
				c4.25,2.88,11.37,6.35,21.22,6.56c1.35,0.03,2.55-0.45,3.27-1.28c0.44-0.51,0.62-1.05,0.54-1.62c-1.35-8.84-4.46-22-11.68-34.85
				c-3.93,4.6-10.68,13.88-14.91,27.47C550.74,101.17,551.34,102.59,552.73,103.54L552.73,103.54z"/>
		</g>
		<g>
			<path class="st1" d="M406.41,187.23c-0.19,0-0.39-0.01-0.58-0.04c-0.29-0.04-29.79-7.89-37.94-44.41
				c-0.29-1.32-0.01-2.71,0.78-3.8c0.79-1.1,2.01-1.81,3.36-1.95c1.16-0.12,28.63-2.82,48.69,13.96c1.96,1.64,2.27,4.53,0.71,6.55
				c-0.09,0.12-9.58,12.57-10.27,25.2c-0.07,1.31-0.69,2.54-1.7,3.38C408.6,186.84,407.52,187.23,406.41,187.23z M378.68,146.33
				c5.66,17.7,17.19,25.97,23.89,29.42c1.83-8.36,5.88-15.76,8.62-20.07C399.8,147.96,386.18,146.49,378.68,146.33z"/>
		</g>
		<g>
			<path class="st1" d="M497.91,331.97c-10.7,0-21.39-0.88-31.72-2.67c-35.04-6.07-60.7-21.48-70.41-42.26
				c-11.41-24.44-8.32-42.54-3.71-53.42c3.38-7.99,8.05-13.35,10.89-16.13c-2.94-13.81-2.48-24.6-1.86-30.2
				c-16.57-7.76-29.47-26.98-34.01-43.15c-1.85-6.61-3.12-15.61,1.33-20.99c8.69-10.48,26.05-14.75,51.6-12.69
				c14.46,1.17,27.32,4.05,32.32,5.27c19.39-12.36,47.02-17.78,55.95-19.28c5.07-11.92,26.81-58.17,57.8-55.34
				c15.25,1.38,27.12,15.6,35.29,42.27c4.46,14.56,6.53,28.72,7.26,34.68c9.55,4.5,40.07,21.53,48.38,58.68
				c6.46,28.89,0.24,58.21-17.98,84.81c-16.78,24.48-42.98,45.03-73.79,57.85C545.42,327.64,521.65,331.97,497.91,331.97z
				 M408.21,119.91c-13.55,0-26.13,2.36-32.12,9.59c-0.8,0.96-1.34,5.06,0.59,11.96c4.08,14.55,16.52,32.82,31.55,38.01
				c2.39,0.83,3.78,3.31,3.23,5.78c-0.03,0.12-2.82,13.54,1.84,32.84c0.47,1.93-0.26,3.96-1.85,5.15
				c-1.02,0.78-25.18,19.93-6.66,59.59c8.31,17.79,31.3,31.15,63.09,36.66c31.48,5.46,66.45,1.98,93.55-9.29
				c62.08-25.83,97.39-79.82,85.89-131.29c-8.5-38-44.74-52.67-45.1-52.82c-1.74-0.69-2.96-2.3-3.14-4.16
				c-1.83-19.04-11.48-68.88-33.87-70.91c-22.69-2.08-42.87,36.63-48.72,51.71c-0.65,1.68-2.17,2.88-3.95,3.13
				c-0.35,0.05-35.56,5.1-56.48,19.34c-1.2,0.82-2.69,1.07-4.09,0.69C442.83,123.45,424.8,119.91,408.21,119.91z M511.84,100.93
				h0.01H511.84z"/>
		</g>
		<g>
			<path class="st1" d="M502.32,218.12c0.28-1.16,0.59-2.07,1-3.03c0.41-0.94,0.88-1.84,1.39-2.72c0.53-0.87,1.11-1.71,1.73-2.53
				c0.66-0.78,1.3-1.59,2.04-2.31c2.9-2.92,6.52-5.26,10.49-6.6c0.96-0.43,2-0.59,3-0.87c1.01-0.27,2.02-0.49,3.05-0.57
				c1.03-0.12,2.05-0.2,3.07-0.29c1.02,0.04,2.04,0.06,3.05,0.13l1.51,0.1l1.48,0.28c0.98,0.2,1.95,0.39,2.91,0.64
				c0.96,0.24,1.87,0.62,2.78,0.97c0.91,0.36,1.8,0.74,2.67,1.16c1.2,0.58,1.69,2.02,1.11,3.22c-0.37,0.76-1.09,1.24-1.87,1.33
				l-0.34,0.04c-1.8,0.21-3.5,0.17-5.17,0.27c-0.84,0.11-1.66,0.18-2.47,0.24l-1.21,0.09l-1.19,0.21c-0.79,0.14-1.57,0.24-2.34,0.36
				c-0.76,0.19-1.5,0.39-2.25,0.56c-0.37,0.1-0.76,0.14-1.11,0.27c-0.36,0.13-0.72,0.26-1.08,0.37c-0.71,0.25-1.46,0.42-2.13,0.75
				c-2.82,1.08-5.42,2.58-8,4.3c-0.66,0.41-1.26,0.91-1.93,1.35l-1.91,1.46c-0.62,0.51-1.29,1-1.9,1.55
				c-0.64,0.5-1.29,1.12-1.87,1.54l-0.55,0.39c-1.14,0.82-2.73,0.55-3.55-0.6C502.28,219.57,502.16,218.81,502.32,218.12z"/>
		</g>
		<g>
			<path class="st1" d="M474.95,240.5c6.38-0.46,13.76-9.36,10.64-13.1c-3.11-3.74-19.19-3.02-22.07,1.67
				C460.65,233.75,468.94,240.93,474.95,240.5z"/>
		</g>
		<g>
			<path class="st1" d="M478.37,259.27c-1.47,0-2.78-1.04-3.05-2.54l-3.37-18.1c-0.31-1.69,0.8-3.31,2.49-3.63
				c1.69-0.32,3.31,0.8,3.63,2.49l3.37,18.1c0.31,1.69-0.8,3.31-2.49,3.63C478.75,259.25,478.56,259.27,478.37,259.27z"/>
		</g>
		<g>
			
				<ellipse transform="matrix(0.9975 -0.0711 0.0711 0.9975 -17.8667 34.8262)" class="st1" cx="480.12" cy="268.31" rx="9.04" ry="11.49"/>
		</g>
		<g>
			<path class="st1" d="M401.66,183.42c0.07-0.38,0.14-0.64,0.21-0.93l0.21-0.83c0.14-0.55,0.29-1.09,0.45-1.61
				c0.3-1.07,0.65-2.1,0.98-3.14c0.71-2.06,1.47-4.08,2.31-6.06c1.67-3.97,3.6-7.81,5.82-11.47c2.19-3.67,4.61-7.19,7.33-10.47
				c2.64-3.34,5.66-6.34,8.74-9.22c0.89-0.84,2.29-0.79,3.12,0.1c0.78,0.83,0.79,2.1,0.07,2.94l-0.07,0.08
				c-2.58,3.05-5.08,6.14-7.17,9.52c-2.17,3.31-4.03,6.81-5.66,10.4c-1.65,3.58-3.01,7.27-4.11,11.03
				c-0.55,1.87-1.03,3.76-1.45,5.65c-0.19,0.94-0.39,1.89-0.54,2.83c-0.09,0.47-0.16,0.93-0.22,1.39l-0.09,0.68
				c-0.02,0.22-0.06,0.46-0.06,0.59c-0.12,2.76-2.45,4.9-5.21,4.78c-2.76-0.12-4.9-2.45-4.78-5.21c0.01-0.24,0.04-0.48,0.08-0.71
				L401.66,183.42z"/>
		</g>
		<g>
			<path class="st1" d="M456.44,124.73c-2.53,1.27-5.11,2.62-7.62,3.98c-2.51,1.37-5.03,2.77-7.34,4.26l-0.07,0.05
				c-1.06,0.69-2.48,0.38-3.17-0.68c-0.55-0.86-0.46-1.94,0.15-2.69c1.95-2.39,3.97-4.53,6.01-6.68c2.05-2.14,4.1-4.23,6.23-6.32
				l0.01-0.01c1.98-1.95,5.17-1.93,7.13,0.06c1.95,1.98,1.93,5.17-0.06,7.13C457.33,124.19,456.89,124.5,456.44,124.73z"/>
		</g>
		<g class="st18">
			<path class="st1" d="M837.02,321.43c-38.28,4.93-84.72-8.29-82.69-38.71c0,0-22.2,29.34-49.45,36
				c-27.25,6.66-71.96,5.74-70.92-17.84c0,0-18.12,5.69-44.67,2.5c-8.15,5.08-16.85,9.56-25.94,13.34
				c-54.65,22.75-132.57,12.79-158.35-21.98c-63.39,17.88-92.02-45.58-92.02-45.58c-36.56,0-45.71-36.47-25.35-54.94
				c-2.94,12.64-5.59,32.28,6.15,32.17c0,0,6.51,12.08,18.55,5.54c0,0,14.53,8.51,43.57-4.82c0,0,5.61,40.33,37.23,35.07
				c0,0,0,0.01,0.01,0.02c0.27,0.66,5.31,12.07,19.65,22.6c13.61,10,59.74,32.52,131.53,13.11
				c58.75-15.89,109.74-74.8,105.18-127.29c-0.12-1.49-0.3-3-0.52-4.5c0,0,32.58,69.1,0.8,103.37c0,0-12.05,12.03-13.92,22.5
				c0,0,4.14,14.81,17.22,11.03c0,0,4.73,14.75,18.86,2.99c0,0,78.71,2.34,87.48-66.51c0,0-15.28-37.34-61.26-48.54
				c0,0,10.58-18.65,45.28-36.48c0,0,1.42,55.85,47.16,78.05c45.73,22.2,73.01-14.68,73.01-14.68s13.73,36.42-39,37.29
				c-52.72,0.86-45.71,26.68-40.28,33.32c5.44,6.63,63.51,27.92,101.66-17.15c15.64-18.48,21.12-41.44,22.11-62.09
				c3.3,7.07,5.87,15.13,7.29,24.29C922.74,281.05,882.45,315.58,837.02,321.43z"/>
		</g>
		<g>
			<g>
				<path class="st1" d="M579.75,215.74c0.88-0.43,1.62-0.75,2.42-1.08c0.78-0.34,1.57-0.63,2.36-0.93
					c1.57-0.61,3.16-1.12,4.74-1.63c1.6-0.47,3.18-0.98,4.79-1.36c1.6-0.42,3.21-0.82,4.83-1.14c6.47-1.36,13.01-2.22,19.58-2.53
					c1.64-0.11,3.28-0.08,4.92-0.12l2.46-0.04c0.82,0.01,1.64,0.05,2.46,0.08l4.9,0.19l4.88,0.45c3.26,0.22,6.47,0.86,9.7,1.31
					c3.21,0.54,6.38,1.32,9.56,1.97c0.45,0.09,0.73,0.53,0.64,0.97c-0.09,0.43-0.49,0.71-0.92,0.65l-0.07-0.01
					c-3.18-0.46-6.34-1.04-9.53-1.39c-3.2-0.26-6.37-0.7-9.58-0.72l-4.79-0.16l-4.79,0.1c-0.8,0.02-1.59,0.02-2.39,0.06l-2.39,0.18
					c-1.59,0.14-3.18,0.2-4.76,0.4c-6.33,0.68-12.58,1.88-18.68,3.54c-1.53,0.39-3.04,0.86-4.53,1.35
					c-1.51,0.45-2.98,1.02-4.45,1.55c-1.46,0.57-2.92,1.13-4.33,1.78c-0.71,0.31-1.42,0.63-2.1,0.97c-0.68,0.32-1.4,0.7-1.95,1.01
					l-0.08,0.04c-1.5,0.84-3.4,0.31-4.24-1.19c-0.84-1.5-0.31-3.4,1.19-4.24C579.64,215.8,579.7,215.77,579.75,215.74z"/>
			</g>
			<g>
				<path class="st1" d="M578.97,236.79c3.13-0.15,5.98-0.07,8.94,0.08c1.46,0.08,2.92,0.2,4.38,0.32c1.45,0.16,2.91,0.3,4.36,0.48
					c5.79,0.73,11.51,1.91,17.11,3.47c2.82,0.72,5.55,1.72,8.31,2.62l4.05,1.6c0.67,0.27,1.35,0.52,2.01,0.82l1.97,0.92
					c5.31,2.32,10.25,5.37,15.06,8.53c0.29,0.19,0.37,0.58,0.18,0.87c-0.18,0.28-0.55,0.36-0.83,0.21l-0.03-0.02
					c-4.96-2.77-9.99-5.4-15.34-7.28l-1.98-0.76c-0.66-0.24-1.34-0.43-2.02-0.65l-4.03-1.27c-2.74-0.68-5.44-1.46-8.22-1.95
					c-5.51-1.12-11.1-1.86-16.7-2.15c-1.4-0.08-2.8-0.1-4.2-0.16c-1.4-0.01-2.8-0.02-4.19,0c-2.76,0.05-5.63,0.2-8.2,0.51
					l-0.11,0.01c-1.71,0.21-3.26-1.01-3.47-2.72c-0.21-1.71,1.01-3.26,2.72-3.46C578.82,236.8,578.9,236.8,578.97,236.79z"/>
			</g>
			<g>
				<path class="st1" d="M576.94,258.95c2.45,0.46,4.67,1,6.95,1.63c2.26,0.62,4.5,1.32,6.71,2.08c4.42,1.53,8.73,3.36,12.9,5.48
					c4.16,2.14,8.11,4.69,11.81,7.54c3.67,2.91,6.94,6.31,9.77,10.02c0.33,0.44,0.25,1.06-0.19,1.4c-0.42,0.32-1,0.26-1.35-0.13
					l-0.04-0.04c-2.98-3.33-6.31-6.3-10-8.79c-3.73-2.44-7.65-4.55-11.76-6.28c-4.12-1.71-8.35-3.13-12.65-4.26
					c-2.15-0.56-4.32-1.07-6.5-1.48c-2.15-0.43-4.42-0.79-6.47-1.01l-0.08-0.01c-1.71-0.18-2.95-1.72-2.76-3.43
					c0.18-1.71,1.72-2.95,3.43-2.76C576.78,258.92,576.86,258.93,576.94,258.95z"/>
			</g>
		</g>
		<g>
			<g>
				<path class="st1" d="M408.78,238.6c-3.19-1.22-6.68-2.31-10.11-3.25c-3.45-0.94-6.95-1.73-10.48-2.37
					c-3.52-0.66-7.08-1.12-10.65-1.41c-3.57-0.33-7.15-0.32-10.73-0.22l-0.06,0c-0.81,0.02-1.49-0.61-1.51-1.43
					c-0.02-0.77,0.56-1.42,1.31-1.5c3.7-0.39,7.43-0.67,11.15-0.61c3.72,0.03,7.44,0.22,11.14,0.64c3.7,0.39,7.39,0.94,11.04,1.64
					c3.68,0.72,7.25,1.54,10.97,2.65c1.65,0.49,2.59,2.23,2.09,3.87c-0.49,1.65-2.23,2.59-3.87,2.09c-0.07-0.02-0.14-0.05-0.22-0.07
					L408.78,238.6z"/>
			</g>
			<g>
				<path class="st1" d="M405.82,259.18c-1.37-0.39-3.04-0.74-4.6-1.03c-1.59-0.28-3.2-0.51-4.83-0.69
					c-3.24-0.36-6.52-0.52-9.79-0.44c-3.28,0.06-6.56,0.32-9.8,0.85c-3.26,0.46-6.45,1.29-9.63,2.2l-0.06,0.02
					c-0.75,0.21-1.53-0.22-1.75-0.97c-0.2-0.71,0.18-1.45,0.86-1.71c3.22-1.22,6.49-2.38,9.87-3.14c3.36-0.84,6.79-1.4,10.24-1.76
					c3.46-0.37,6.94-0.5,10.43-0.41c1.75,0.04,3.49,0.15,5.24,0.3c1.78,0.18,3.45,0.37,5.36,0.74c1.69,0.33,2.79,1.97,2.46,3.66
					c-0.33,1.69-1.97,2.79-3.66,2.46c-0.09-0.02-0.17-0.04-0.25-0.06L405.82,259.18z"/>
			</g>
			<g>
				<path class="st1" d="M409.75,279.81c-1.51-0.06-3.27-0.03-4.92,0.06c-1.68,0.08-3.36,0.24-5.04,0.43
					c-3.35,0.4-6.68,1.04-9.95,1.9c-3.28,0.83-6.46,1.97-9.54,3.34c-3.11,1.31-5.98,3.09-8.78,4.95l-0.1,0.07
					c-0.87,0.58-2.04,0.34-2.61-0.53c-0.55-0.83-0.35-1.95,0.43-2.55c2.89-2.19,5.89-4.28,9.15-5.89c3.23-1.66,6.58-3.09,10.03-4.18
					c3.44-1.12,6.96-2.01,10.53-2.66c1.78-0.31,3.58-0.58,5.39-0.78c1.83-0.2,3.57-0.35,5.56-0.39c1.72-0.03,3.14,1.33,3.17,3.05
					c0.03,1.72-1.33,3.14-3.05,3.17c-0.06,0-0.11,0-0.17,0L409.75,279.81z"/>
			</g>
		</g>
		<g>
			<path class="st1" d="M644.31,318.54c-0.04-0.32-0.04-0.47-0.05-0.65c-0.01-0.19-0.01-0.35-0.01-0.52c0-0.33,0-0.65,0.02-0.96
				c0.02-0.63,0.09-1.23,0.15-1.83c0.16-1.19,0.37-2.35,0.66-3.48c0.59-2.26,1.39-4.42,2.47-6.41c1.09-1.98,2.3-3.85,3.76-5.48
				c0.68-0.86,1.49-1.58,2.24-2.34c0.78-0.74,1.62-1.39,2.42-2.07c0.71-0.61,1.78-0.52,2.38,0.19c0.5,0.59,0.53,1.42,0.13,2.03
				l-0.12,0.18c-0.53,0.8-1.09,1.55-1.57,2.35c-0.44,0.83-0.95,1.59-1.3,2.45c-0.81,1.63-1.32,3.38-1.72,5.07
				c-0.38,1.71-0.5,3.44-0.46,5.12c0.02,0.84,0.11,1.66,0.23,2.46c0.08,0.39,0.14,0.79,0.24,1.15c0.04,0.19,0.09,0.36,0.15,0.52
				c0.02,0.08,0.05,0.17,0.08,0.22c0.02,0.06,0.06,0.16,0.06,0.08c0.53,2.7-1.22,5.31-3.92,5.85
				C647.46,322.99,644.85,321.24,644.31,318.54z"/>
		</g>
		<g>
			<path class="st1" d="M661.99,320.96c-0.01-0.32,0-0.48,0.01-0.67c0.01-0.2,0.02-0.37,0.04-0.54c0.03-0.35,0.07-0.69,0.11-1.02
				c0.08-0.67,0.21-1.3,0.33-1.94c0.27-1.26,0.6-2.49,1.01-3.68c0.81-2.38,1.86-4.65,3.19-6.72c1.32-2.06,2.81-4,4.54-5.65
				c0.81-0.87,1.76-1.6,2.66-2.36c0.91-0.74,1.91-1.36,2.84-2.03c0.8-0.57,1.91-0.38,2.47,0.41c0.48,0.67,0.42,1.57-0.09,2.17
				l-0.15,0.18c-0.67,0.8-1.39,1.53-2.01,2.35c-0.59,0.84-1.23,1.62-1.71,2.5c-1.08,1.69-1.85,3.52-2.47,5.35
				c-0.62,1.83-0.96,3.73-1.12,5.6c-0.08,0.93-0.08,1.86-0.05,2.77c0.03,0.45,0.05,0.9,0.11,1.33c0.02,0.22,0.05,0.42,0.09,0.62
				c0.02,0.1,0.03,0.2,0.05,0.27c0.02,0.08,0.04,0.19,0.05,0.14c0.25,2.74-1.78,5.16-4.51,5.4
				C664.66,325.71,662.24,323.69,661.99,320.96z"/>
		</g>
		<g>
			<path class="st1" d="M285.53,239.83c0.02-0.75,0.07-1.21,0.14-1.77c0.06-0.54,0.14-1.07,0.22-1.59c0.17-1.05,0.38-2.07,0.62-3.09
				c0.49-2.03,1.14-4.02,1.94-5.94c0.78-1.93,1.8-3.77,2.95-5.51c1.12-1.75,2.55-3.31,4.02-4.74c0.89-0.87,2.32-0.86,3.19,0.03
				c0.74,0.75,0.84,1.88,0.32,2.74l-0.11,0.18c-0.88,1.45-1.68,2.91-2.22,4.51c-0.55,1.57-0.98,3.18-1.21,4.84
				c-0.25,1.65-0.37,3.32-0.36,4.98c0.01,0.83,0.04,1.66,0.12,2.47c0.04,0.41,0.08,0.81,0.13,1.2c0.05,0.36,0.12,0.83,0.18,1.02
				c0.93,2.67-0.48,5.59-3.15,6.52c-2.67,0.93-5.59-0.48-6.52-3.15c-0.21-0.59-0.3-1.19-0.28-1.78L285.53,239.83z"/>
		</g>
		<g>
			<path class="st1" d="M306.32,245.96c-0.02-0.82,0.03-1.3,0.08-1.91c0.05-0.58,0.12-1.14,0.21-1.69c0.16-1.11,0.39-2.2,0.65-3.28
				c0.54-2.15,1.3-4.23,2.27-6.21c0.94-1.98,2.17-3.83,3.58-5.48c1.36-1.69,3.07-3.04,4.77-4.26c0.74-0.53,1.78-0.36,2.31,0.38
				c0.44,0.61,0.4,1.41-0.03,1.98l-0.11,0.14c-1.1,1.43-2.12,2.86-2.78,4.48c-0.7,1.58-1.2,3.22-1.46,4.91
				c-0.28,1.68-0.38,3.38-0.31,5.06c0.05,0.84,0.11,1.68,0.24,2.5c0.06,0.41,0.13,0.81,0.21,1.2c0.07,0.36,0.18,0.84,0.26,0.98
				c1.46,2.53,0.59,5.75-1.94,7.21c-2.53,1.46-5.75,0.59-7.21-1.94c-0.46-0.79-0.69-1.66-0.71-2.51L306.32,245.96z"/>
		</g>
		<g>
			<g>
				<g>
					<g>
						<path class="st1" d="M441.76,188.65c8.05-1.38,15.56,7.69,16.77,20.25c1.21,12.57-4.34,23.87-12.4,25.25
							c-8.05,1.38-15.56-7.69-16.77-20.25C428.15,201.33,433.71,190.03,441.76,188.65z"/>
					</g>
				</g>
			</g>
			<g>
				<g>
					<g>
						<path class="st14" d="M442.36,193.91c2.58,1,3.71,5.23,2.54,9.45c-1.18,4.22-4.22,6.83-6.79,5.83c-2.58-1-3.71-5.23-2.54-9.45
							C436.74,195.52,439.79,192.91,442.36,193.91z"/>
						<path class="st1" d="M439.24,210.08c-0.47,0-0.94-0.09-1.38-0.26c-2.94-1.14-4.23-5.65-2.94-10.26
							c0.79-2.82,2.4-5.08,4.33-6.05c1.13-0.57,2.29-0.65,3.36-0.23c2.94,1.14,4.23,5.65,2.94,10.27c-0.79,2.82-2.4,5.08-4.33,6.05
							C440.56,209.92,439.89,210.08,439.24,210.08z M441.22,194.37c-0.44,0-0.9,0.12-1.37,0.35c-1.57,0.78-2.96,2.78-3.63,5.2
							c-1.06,3.82-0.09,7.78,2.13,8.64c0.71,0.27,1.47,0.21,2.26-0.18c1.57-0.78,2.96-2.78,3.63-5.2c1.07-3.82,0.09-7.78-2.13-8.64
							C441.83,194.42,441.53,194.37,441.22,194.37z"/>
					</g>
				</g>
			</g>
			<g>
				<g>
					<g>
						<path class="st19" d="M451.19,220.54c1.22,0.9,1.39,3.26,0.37,5.28c-1.02,2.02-2.84,2.92-4.06,2.03
							c-1.22-0.9-1.39-3.26-0.37-5.28C448.15,220.55,449.97,219.64,451.19,220.54z"/>
						<path class="st1" d="M448.56,228.86c-0.53,0-1.03-0.16-1.46-0.48c-1.5-1.1-1.75-3.79-0.57-6.12c0.7-1.39,1.81-2.39,2.96-2.67
							c0.76-0.18,1.5-0.04,2.1,0.4l0,0c1.5,1.1,1.75,3.79,0.57,6.12c-0.71,1.39-1.81,2.39-2.96,2.67
							C448.98,228.84,448.77,228.86,448.56,228.86z M450.13,220.87c-0.11,0-0.22,0.01-0.33,0.04c-0.76,0.18-1.55,0.93-2.07,1.96
							c-0.95,1.88-0.68,3.8,0.16,4.43c0.28,0.21,0.61,0.27,0.99,0.18c0.76-0.18,1.55-0.93,2.07-1.96c0.95-1.88,0.68-3.81-0.16-4.43
							l0,0C450.6,220.94,450.38,220.87,450.13,220.87z"/>
					</g>
				</g>
			</g>
		</g>
	</g>
</g>
</svg>
