<?xml version="1.0" encoding="utf-8"?>
<!-- Generator: Adobe Illustrator 26.0.0, SVG Export Plug-In . SVG Version: 6.00 Build 0)  -->
<svg version="1.1" id="Capa_1" xmlns="http://www.w3.org/2000/svg" xmlns:xlink="http://www.w3.org/1999/xlink" x="0px" y="0px"
	 viewBox="0 0 1024 408.86" style="enable-background:new 0 0 1024 408.86;" xml:space="preserve">
<style type="text/css">
	.st0{opacity:0.2;}
	.st1{fill:#262B5F;}
	.st2{filter:url(#Adobe_OpacityMaskFilter);}
	.st3{filter:url(#Adobe_OpacityMaskFilter_00000152228374411966927370000001239430671117783689_);}
	.st4{mask:url(#SVGID_1_);fill:url(#SVGID_00000162340181693266633200000000428086534202112924_);}
	.st5{fill:url(#SVGID_00000076564182885348059470000014307657034427806615_);}
	.st6{fill:#CDCCCC;}
	.st7{fill:#F39200;}
	.st8{fill:#DEDEDE;}
	.st9{fill:#808181;}
	.st10{fill:#9A9999;}
	.st11{fill:#FBD0BB;}
	.st12{fill:#E7E6E6;}
	.st13{fill:#F2F2F2;}
	.st14{fill:#FFFFFF;}
	.st15{opacity:0.6;}
	.st16{fill:#EF782B;}
	.st17{fill:#EB5661;}
	.st18{opacity:0.3;}
	.st19{fill:#B199C5;}
	.st20{fill:#3B2563;}
	.st21{fill:#C4DAF0;}
	.st22{opacity:0.15;}
	.st23{fill:#F59D1D;}
	.st24{fill:#EA528A;}
	.st25{fill:#BB5421;}
	.st26{fill:#ED699F;}
	.st27{fill:#F39C9E;}
	.st28{fill:#994F32;}
	.st29{fill:#36AD68;}
</style>
<g>
	<g>
		<g>
			<path class="st20" d="M171.08,310.88c7.28-1.22,14.57-1.84,21.85-2.34c7.28-0.51,14.57-0.67,21.85-0.82
				c14.57-0.32,29.13-0.15,43.7,0.02l21.85,0.14l21.85,0.01h43.7h174.8h174.8h87.4l21.85,0c7.28,0,14.57-0.2,21.85-0.3
				c7.28-0.1,14.57,0.05,21.85,0.43c3.64,0.21,7.28,0.51,10.93,0.98c3.64,0.46,7.28,1,10.93,1.88v2.99
				c-3.64,0.88-7.28,1.42-10.93,1.88c-3.64,0.47-7.28,0.77-10.93,0.98c-7.28,0.38-14.57,0.53-21.85,0.43
				c-7.28-0.09-14.57-0.3-21.85-0.3l-21.85,0h-87.4h-174.8h-174.8h-43.7l-21.85,0.01l-21.85,0.14c-14.57,0.17-29.13,0.34-43.7,0.02
				c-7.28-0.15-14.57-0.31-21.85-0.82c-7.28-0.51-14.57-1.12-21.85-2.34V310.88z"/>
		</g>
		<g>
			<g class="st18">
				<g>
					<path class="st20" d="M853.34,312.38H171.22c-22.37,2.72-34.88,5.76-34.88,8.96c0,11.76,168.31,21.29,375.94,21.29
						s375.94-9.53,375.94-21.29C888.22,318.14,875.71,315.1,853.34,312.38z"/>
				</g>
			</g>
		</g>
		<g>
			<g>
				<path class="st21" d="M600.81,287.85H332.79c-15.9,0-30.19-8.17-38.01-20.81c-2.25-3.62-3.96-7.6-5.02-11.86L247.48,86.27
					c-6.72-26.86,14.39-52.7,43.03-52.7h268.02c12.98,0,24.89,5.44,33.08,14.32c4.73,5.1,8.22,11.35,9.96,18.35l42.28,168.91
					C650.56,262.01,629.46,287.85,600.81,287.85z"/>
			</g>
			<g class="st15">
				<path class="st14" d="M258.13,92.95l42.28,168.91c1.06,4.26,2.78,8.24,5.02,11.86c1.79,2.92,3.95,5.59,6.38,7.97
					c-7.55-3.63-13.91-9.28-18.26-16.33c-2.25-3.62-3.96-7.6-5.02-11.86L246.24,84.59c-6.72-26.86,14.39-52.7,43.03-52.7h268.02
					c12.24,0,23.53,4.84,31.64,12.83c-5.99-2.88-12.72-4.48-19.76-4.48H301.16C272.51,40.25,251.4,66.09,258.13,92.95z"/>
			</g>
			<g>
				<path class="st20" d="M600.81,289.64H332.79c-22.12,0-41.2-14.52-46.4-35.3L244.12,85.44c-3.38-13.49-0.36-27.58,8.29-38.66
					c9.11-11.67,23-18.36,38.11-18.36h268.02c22.12,0,41.2,14.51,46.41,35.3l42.28,168.91c3.37,13.5,0.35,27.59-8.3,38.67
					C629.81,282.95,615.92,289.64,600.81,289.64z M290.51,35.36c-12.96,0-24.85,5.72-32.64,15.69c-7.32,9.38-9.88,21.3-7.02,32.7
					l42.28,168.91c4.42,17.69,20.73,30.04,39.66,30.04h268.02c12.96,0,24.85-5.72,32.64-15.68c7.32-9.38,9.89-21.3,7.04-32.71
					L598.2,65.4c-4.43-17.69-20.75-30.04-39.67-30.04H290.51z"/>
			</g>
			<g>
				<path class="st20" d="M600.81,289.64H353.62c-22.12,0-41.2-14.52-46.4-35.3L264.95,85.44c-3.38-13.49-0.36-27.58,8.29-38.66
					c9.11-11.67,23-18.36,38.11-18.36h247.19c22.12,0,41.2,14.51,46.41,35.3l42.28,168.91c3.37,13.5,0.35,27.59-8.3,38.67
					C629.81,282.95,615.92,289.64,600.81,289.64z M311.34,35.36c-12.96,0-24.85,5.72-32.64,15.69c-7.32,9.38-9.88,21.3-7.02,32.7
					l42.28,168.91c4.42,17.69,20.73,30.04,39.66,30.04h247.19c12.96,0,24.85-5.72,32.64-15.68c7.32-9.38,9.89-21.3,7.04-32.71
					L598.2,65.4c-4.43-17.69-20.75-30.04-39.67-30.04H311.34z"/>
			</g>
			<g>
				<path class="st20" d="M584.37,265.04H365.26c-7.59,0-14.77-1.99-20.85-5.49c-8.46-4.83-14.83-12.57-17.29-21.91L289.64,92.56
					c-5.96-22.52,1.26-40.71,38.14-40.71H546.9c5.07,0,9.95,0.89,14.44,2.52c11.6,4.18,20.65,13.29,23.71,24.87l37.47,141.62
					C628.47,243.38,609.76,265.04,584.37,265.04z"/>
			</g>
			<g class="st22">
				<path class="st14" d="M470.09,51.84l-86.95,213.2h-17.88c-7.59,0-14.77-1.99-20.85-5.49l84.71-207.71H470.09z"/>
			</g>
			<g class="st22">
				<path class="st14" d="M561.34,54.37l-89.09,210.67h-75.12l90.17-213.2h59.6C551.97,51.84,556.85,52.73,561.34,54.37z"/>
			</g>
			<g>
				<path class="st20" d="M584.37,269.67H365.26c-20.3,0-37.82-12.68-42.62-30.84L285.16,93.71c-3.63-13.73-2.35-24.77,3.82-32.78
					c7.01-9.1,20.07-13.72,38.81-13.72H546.9c20.29,0,37.82,12.68,42.63,30.84L627,219.67c3.01,11.4,0.51,23.42-6.85,32.97
					C611.94,263.3,598.56,269.67,584.37,269.67z M327.79,56.47c-15.72,0-26.31,3.4-31.47,10.11c-4.32,5.62-5.06,13.96-2.2,24.79
					l37.48,145.12c3.72,14.07,17.56,23.92,33.66,23.92h219.11c11.34,0,21.97-5.02,28.45-13.43c5.67-7.36,7.53-16.22,5.23-24.95
					L580.58,80.42c-3.74-14.1-17.59-23.95-33.68-23.95H327.79z"/>
			</g>
			<g class="st18">
				<g>
					<path class="st20" d="M600.81,287.85H332.79c-15.9,0-30.19-8.17-38.01-20.81C480.33,234.57,565.87,98.3,591.61,47.88
						c4.73,5.1,8.22,11.35,9.96,18.35l42.28,168.91C650.56,262.01,629.46,287.85,600.81,287.85z"/>
				</g>
			</g>
			<g>
				<path class="st23" d="M518.15,160.43c-2.42,4.88-5.71,9.22-9.47,13.07c-13.84,14.17-34.09,21.47-41.15,23.69
					c-1.62,0.51-2.55,0.75-2.55,0.75s-0.43-1.39-1.08-3.77c-0.64-2.29-1.48-5.51-2.33-9.32c-3.99-17.65-8.45-47.84,5.05-56.41
					c12.24-7.77,29.5,6.94,40.61,18.9c2.72,2.93,5.07,5.69,6.89,7.92C516.66,158.37,518.15,160.43,518.15,160.43z"/>
			</g>
			<g class="st15">
				<path class="st14" d="M514.12,155.26c-6.92,1.83-11.23,3.77-11.23,3.77s-1.92-3.31-5-7.49c-6.12-8.32-16.78-20.1-25.88-16.23
					c-9.37,3.99-7.66,28.03-5.66,42.73c0.93,6.72,1.9,11.5,1.9,11.5l-4.35,4.62c-0.64-2.29-1.48-5.51-2.33-9.32
					c-3.99-17.65-8.45-47.84,5.05-56.41c12.24-7.77,29.5,6.94,40.61,18.9C509.96,150.27,512.31,153.04,514.12,155.26z"/>
			</g>
			<g>
				<path class="st20" d="M462.48,201.95l-0.99-3.17c-1.9-6.11-17.97-60.1,3.1-73.46c21.58-13.68,52.72,28.08,56.2,32.88l1.23,1.7
					l-0.93,1.88c-2.42,4.89-5.82,9.58-10.1,13.95c-14.23,14.56-34.52,22.03-42.59,24.57c-1.72,0.54-2.7,0.8-2.7,0.8L462.48,201.95z
					 M474.13,129.56c-2.09,0-4.05,0.5-5.83,1.63c-13.18,8.36-6.02,45.06-1.16,62.23c6.79-2.21,25.96-9.31,38.88-22.54
					c3.22-3.29,5.85-6.75,7.86-10.33C505.75,149.84,487.38,129.56,474.13,129.56z"/>
			</g>
			<g>
				<path class="st24" d="M508.58,169.79c-16.67,23.04-36.94,27.76-36.94,27.76s-14.87-44.78-0.39-54.74
					C480.03,136.78,498.79,157.03,508.58,169.79z"/>
			</g>
			<g>
				<path class="st23" d="M869.14,357.23c-0.24,4.92-2.16,9.92-5.4,13.54c-1.9,2.12-4.26,3.77-7,4.66c-6.82,2.22-14.39-0.61-20.07-5
					c-8.25-6.37-13.63-15.61-17.59-25.34c-0.82-1.98-1.57-3.99-2.28-6.01c-3.12-8.85-5.54-17.91-7.38-27.1
					c-4.09-20.43-5.3-41.49-5.03-62.37c0.15-12.07,0.79-24.22-1.11-36.14c-1.19-7.43-3.47-14.84-7.65-21.64
					c-0.09-0.16-0.19-0.31-0.29-0.47c-2.05-3.25-4.54-6.37-7.57-9.25c-0.64-0.61-1.3-1.22-1.98-1.81c0.17,0.02,0.35,0.05,0.52,0.08
					c2.84,0.37,5.64,0.96,8.38,1.75c19.34,5.5,35.97,20.36,43.07,39.21c10.33,27.37,1.34,59.38,10.39,86.75
					c0.01,0.01,0.01,0.01,0.01,0.01c0.75,2.27,1.63,4.51,2.65,6.72c3.29,7.08,7.96,13.44,11.8,20.23
					c2.84,5.03,5.25,10.47,6.16,16.13C869.1,353.18,869.24,355.19,869.14,357.23z"/>
			</g>
			<g>
				<path class="st25" d="M869.14,358.69c-0.39,7.8-4.98,15.8-12.41,18.2c-6.82,2.22-14.39-0.61-20.07-5
					c-8.25-6.37-13.63-15.61-17.59-25.34c-0.56-5.15-0.68-10.36-0.5-15.52c0.21-5.8,0.82-11.74,3.45-16.91
					c2.62-5.17,7.65-9.47,13.45-9.72c4.69-0.22,8.96,2.12,12.67,5.15c0.01,0.01,0.01,0.01,0.01,0.01c0.75,2.27,1.63,4.51,2.65,6.72
					c3.29,7.08,7.96,13.44,11.8,20.23C866.44,343.32,869.52,350.89,869.14,358.69z"/>
			</g>
			<g class="st15">
				<path class="st14" d="M869.14,357.23c-0.24,4.92-2.16,9.92-5.4,13.54c1.98-11.6-4.97-27.97-17.37-41.85
					c-15.89-17.8-12.95-70.36-16.11-94.71c-2.78-21.35-25.02-35-26.95-35.17c-0.09-0.01,2.51,9.08,2.51,9.08
					c-2.37-5.23-5.87-10.73-10.2-16.29c-2.48-3.19-5.09-6.45-7.86-9.72c-0.46-0.58-0.95-1.15-1.46-1.72
					c2.84,0.37,5.64,0.96,8.38,1.75c19.34,5.5,35.97,20.36,43.07,39.21c10.33,27.37,1.34,59.38,10.39,86.75
					c0.01,0.01,0.01,0.01,0.01,0.01c0.75,2.27,1.63,4.51,2.65,6.72c3.29,7.08,7.96,13.44,11.8,20.23
					c2.84,5.03,5.25,10.47,6.16,16.13C869.1,353.18,869.24,355.19,869.14,357.23z"/>
			</g>
			<g class="st18">
				<g>
					<path class="st20" d="M869.14,358.69c-0.39,7.8-4.98,15.8-12.41,18.2c-6.82,2.22-14.39-0.61-20.07-5
						c-8.25-6.37-13.63-15.61-17.59-25.34c-0.82-1.98-1.57-3.99-2.28-6.01c-10.07-28.54-12.81-59.21-12.42-89.47
						c0.15-12.07,0.79-24.22-1.11-36.14c-1.22-7.6-3.58-15.18-7.94-22.12c12.48,7.79,28.57,26.5,27.85,61.09
						c-1.86,89.72,24.55,109.74,45.59,98.75C869.1,354.64,869.24,356.65,869.14,358.69z"/>
				</g>
			</g>
			<g>
				<path class="st20" d="M851.69,381.15c-5.62,0-11.62-2.23-17.15-6.5c-7.64-5.9-13.75-14.66-18.69-26.79
					c-0.77-1.85-1.54-3.88-2.34-6.17c-8.95-25.37-13.08-55.03-12.61-90.66c0.02-1.94,0.06-3.89,0.1-5.84
					c0.19-9.84,0.38-20.01-1.17-29.71c-2.13-13.3-7.47-23.46-16.32-31.08c-1.16-1-1.53-2.64-0.91-4.04c0.62-1.4,2.1-2.22,3.61-2.03
					c24.17,3.09,46.19,20.47,54.78,43.25c5.56,14.73,5.74,30.67,5.92,46.09c0.16,14.37,0.32,27.96,4.46,40.6
					c0.03,0.07,0.05,0.13,0.08,0.2c0.72,2.18,1.57,4.32,2.51,6.36c1.96,4.22,4.42,8.15,7.03,12.31c1.55,2.48,3.16,5.04,4.64,7.66
					c5.12,9.09,7.33,16.73,6.97,24.05c0,0,0,0,0,0.01c-0.5,9.9-6.59,18.67-14.8,21.33C855.85,380.83,853.79,381.15,851.69,381.15z
					 M795.99,187.63c5.48,7.36,9.01,16.2,10.7,26.75c1.64,10.31,1.44,20.8,1.25,30.94c-0.04,1.93-0.07,3.87-0.1,5.8
					c-0.45,34.81,3.55,63.68,12.22,88.27c0.76,2.17,1.48,4.07,2.21,5.83c4.47,10.98,9.86,18.8,16.51,23.93
					c5.67,4.38,11.98,6.04,16.87,4.45c6.46-2.09,9.72-9.28,10.01-15.08c0.29-5.96-1.64-12.41-6.09-20.3
					c-1.4-2.48-2.96-4.97-4.48-7.38c-2.61-4.16-5.31-8.47-7.45-13.09c-1.02-2.22-1.94-4.54-2.73-6.89
					c-0.03-0.07-0.06-0.14-0.08-0.22c-4.54-13.73-4.71-28.56-4.87-42.9c-0.17-14.81-0.34-30.14-5.47-43.72
					C828.08,206.99,813.29,193.32,795.99,187.63z M869.14,358.69h0.01H869.14z"/>
			</g>
			<g>
				<path class="st21" d="M777.31,298.16c0,3.31-1.34,6.31-3.51,8.47c-2.16,2.16-5.16,3.51-8.47,3.51H306.69
					c-6.62-0.01-11.98-5.37-11.98-11.98c0-6.62,5.36-11.98,11.98-11.98h458.64C771.95,286.18,777.31,291.54,777.31,298.16z"/>
			</g>
			<g class="st18">
				<g>
					<path class="st20" d="M777.31,298.16c0,3.31-1.34,6.31-3.51,8.47c-2.16,2.16-5.16,3.51-8.47,3.51H306.69
						c-6.62-0.01-11.98-5.37-11.98-11.98H777.31z"/>
				</g>
			</g>
			<g>
				<path class="st20" d="M765.33,313.61H306.69c-8.52-0.02-15.45-6.95-15.45-15.45c0-8.52,6.93-15.45,15.45-15.45h458.64
					c8.52,0,15.45,6.93,15.45,15.45C780.78,306.68,773.85,313.61,765.33,313.61z M306.69,289.66c-4.69,0-8.51,3.82-8.51,8.51
					c0,4.68,3.82,8.5,8.51,8.51h458.63c4.69,0,8.51-3.81,8.51-8.51s-3.82-8.51-8.51-8.51H306.69z"/>
			</g>
			<g>
				<path class="st23" d="M812.35,281.01c-0.94,8.27-1.62,20.24-2.94,32.43c-1.2,11.33-2.96,22.86-5.93,31.78
					c-3.03,9.12-7.36,15.52-13.69,16.2c-28.04,3-19.95-43.29-22.46-59.46c-1.27-8.21-5.52-19.28-13.82-19.28
					c-32.2,0-55.79-1.02-82.3-0.54c-1.35,25.55-0.81,46.67-0.59,70.65c0.02,2.06,0.05,4.15,0.06,6.26c0.02,3.19,0.03,6.46,0.03,9.79
					c0,19.38-28.41,23.35-36.11,6.15c-10.03-22.49-7.56-60.95-9.36-90.78c-52.03,0.41-103.74,1.15-155.46,1.89
					c-11.23-6.74-18.35-21.28-20.89-35.12c-3.1-14.84-2.14-29.44,1.92-42.9l0.01-0.01c0.69-2.34,1.49-4.64,2.38-6.9
					c2.25-5.71,5.06-11.17,8.37-16.31c1.48-2.34,3.09-4.61,4.78-6.8c8.49-11.01,19.32-20.14,31.54-26.5
					c2.68-1.4,5.44-2.66,8.25-3.78c0.36-0.14,0.72-0.29,1.09-0.42c16.01-6.15,33.8-7.63,51.56-2.71c2.18,0.59,4.34,1.28,6.52,2.08
					c15.3-30.88,39.43-43.77,59.91-3.54c48.4-48.25,132.14-26.64,169.45,40.41c4.47,8.03,8.27,16.71,11.27,26
					C812.68,230.48,815.35,254.44,812.35,281.01z"/>
			</g>
			<g class="st15">
				<path class="st14" d="M805.95,209.59c-0.09-0.01-0.14-0.01-0.14-0.01c-2.37-5.23-5.87-10.73-10.2-16.29
					c-22.45-28.94-56.73-63.33-94.23-65.23c-38.9-1.97-64.52,17.59-64.52,17.59c5.64,17.86-1.6,40.05-1.6,40.05
					c-5.65-18.73-22.64-55.31-38.63-57.54c-15.99-2.23-30.14,30.27-30.14,30.27c-19.42-9.29-40.05-6.43-52.38-3.18
					c-6.92,1.83-11.23,3.77-11.23,3.77s-1.92-3.31-5-7.49c2.68-1.4,5.44-2.66,8.25-3.78c0.36-0.14,0.72-0.29,1.09-0.42
					c16.01-6.15,33.8-7.63,51.56-2.71c2.18,0.59,4.34,1.28,6.52,2.08c15.3-30.88,39.43-43.77,59.91-3.54
					c48.4-48.25,132.14-26.64,169.45,40.41C799.14,191.62,802.95,200.3,805.95,209.59z"/>
			</g>
			<g>
				<path class="st25" d="M558.61,144.45c-5.75,10.76-11.45,21.56-17.14,32.36c-0.37,0.68-0.79,1.41-1.5,1.7
					c-1.06,0.42-2.28-0.43-2.7-1.49c-0.42-1.06-0.24-2.26-0.07-3.39c0.72-4.69,1.45-9.37,2.18-14.07c0.22-1.39,0.28-3.14-0.95-3.85
					c-0.89-0.51-2.08-0.14-2.81,0.59c-0.73,0.73-1.1,1.72-1.45,2.7c-4.19,11.54-8.37,23.08-12.56,34.61
					c-0.67,1.87-1.77,4.06-3.76,4.15c-1.37,0.06-2.58-1.03-3.09-2.3c-0.52-1.27-0.47-2.7-0.41-4.07c0.52-9.73,2.37-19.38,5.49-28.62
					c0.45-1.33,0.83-3.01-0.21-3.93c-1.12-1-2.89-0.22-4.03,0.76c-5.24,4.57-6.37,12.41-11.05,17.54c-1.46,1.6-3.89,2.94-5.68,1.75
					c-1.67-1.11-1.57-3.54-1.24-5.5c1.53-8.95,4.34-17.66,8.33-25.81C522.25,141.08,540.45,139.42,558.61,144.45z"/>
			</g>
			<g>
				<path class="st20" d="M652.11,389.16c-7.97,0-16.73-3.73-20.85-12.95c-7.73-17.33-8.29-42.95-8.83-67.74
					c-0.16-7.33-0.31-14.31-0.64-20.96c-50.91,0.41-102.31,1.15-152.05,1.86c-0.63,0.04-1.36-0.16-1.91-0.49
					c-11.01-6.61-19.43-20.62-22.52-37.48c-9.18-43.85,16.34-89.91,59.38-107.06c17.86-7.12,36.83-8.24,54.86-3.24
					c1.27,0.34,2.57,0.73,3.87,1.16c9.54-18.01,21.25-27.92,33.17-27.99c0.04,0,0.08,0,0.12,0c10.77,0,20.59,7.75,29.24,23.06
					c29.64-26.84,72.26-31.61,112.4-12.23c24.82,11.98,46.08,32.52,59.84,57.82c15.45,28.4,21.47,62.38,17.42,98.28v0
					c-0.44,3.9-0.84,8.76-1.26,13.91c-2.45,30.09-5.51,67.54-24.38,69.56c-6.34,0.68-11.61-0.82-15.67-4.45
					c-9.88-8.84-9.96-28.14-10.02-43.64c-0.02-5.59-0.04-10.86-0.58-14.29c-1.22-7.87-4.99-16.34-10.39-16.34
					c-13.8,0-25.88-0.18-37.56-0.36c-14.11-0.22-27.5-0.42-41.43-0.23c-0.96,20.31-0.75,38.04-0.53,56.76
					c0.1,8.46,0.2,17.21,0.2,26.53c0,9.96-6.58,17.8-16.77,19.98C655.61,388.98,653.88,389.16,652.11,389.16z M625.06,280.55
					c1.83,0,3.35,1.43,3.47,3.26c0.47,7.76,0.65,15.9,0.84,24.52c0.53,24.09,1.07,49.01,8.23,65.06c3.46,7.74,11.86,9.81,18.19,8.46
					c5.45-1.16,11.27-5.24,11.27-13.19c0-9.28-0.1-18.01-0.2-26.45c-0.23-19.82-0.45-38.54,0.7-60.44c0.1-1.82,1.58-3.26,3.41-3.29
					c15.22-0.28,29.64-0.05,44.9,0.18c11.65,0.18,23.71,0.36,37.46,0.36c10.18,0,15.58,11.48,17.25,22.22
					c0.61,3.94,0.63,9.22,0.66,15.33c0.06,13.38,0.13,31.71,7.71,38.49c2.57,2.3,5.94,3.19,10.3,2.72
					c13.16-1.41,16.31-40.1,18.2-63.22c0.42-5.2,0.82-10.12,1.28-14.13c8.99-79.55-33.91-130.02-73.38-149.07
					c-38.95-18.8-80.27-13.4-107.84,14.09c-0.79,0.78-1.9,1.15-3,0.97c-1.1-0.18-2.04-0.86-2.55-1.85
					c-7.78-15.28-16.51-23.35-25.24-23.35c-0.03,0-0.05,0-0.08,0c-9.61,0.05-19.96,9.84-28.39,26.85c-0.79,1.59-2.64,2.33-4.31,1.72
					c-2.09-0.77-4.18-1.44-6.23-1.99c-16.57-4.6-34.01-3.56-50.45,3c-39.95,15.92-63.65,58.6-55.14,99.27
					c2.07,11.32,7.99,25.54,18.46,32.35c50.58-0.72,102.79-1.47,154.46-1.87C625.05,280.55,625.05,280.55,625.06,280.55z
					 M812.16,280.82h0.01H812.16z"/>
			</g>
			<g>
				<path class="st20" d="M667.62,282.11l3.45-34.41l0-0.04c0.11-1.1,1.09-1.9,2.19-1.79c1.04,0.1,1.81,0.99,1.8,2.02l-0.51,34.55
					l0,0.07c-0.03,1.92-1.61,3.45-3.53,3.42c-1.92-0.03-3.45-1.61-3.42-3.53C667.61,282.31,667.61,282.2,667.62,282.11z"/>
			</g>
			<g>
				<path class="st20" d="M757.33,287.55c-6.58-4.33-12.35-9.7-17.2-15.8c-4.82-6.11-8.75-13.02-10.93-20.62
					c-4.25-15.14-1.7-31.73,6.58-44.75c0.47-0.74,1.45-0.96,2.19-0.49c0.72,0.46,0.94,1.41,0.52,2.14
					c-7.27,12.53-8.88,28.13-4.45,41.62c2.23,6.7,6.07,12.87,10.73,18.28c4.67,5.4,10.19,10.11,16.26,13.73
					c1.65,0.98,2.19,3.11,1.2,4.76s-3.11,2.19-4.76,1.2C757.42,287.61,757.37,287.58,757.33,287.55z"/>
			</g>
			<g>
				<path class="st20" d="M621.66,286.18l1.43-15.55c0.1-1.08,1.05-1.87,2.13-1.77c0.95,0.09,1.67,0.83,1.77,1.74l0,0.02l1.62,15.55
					c0.2,1.92-1.19,3.63-3.11,3.83c-1.92,0.2-3.63-1.19-3.83-3.11c-0.02-0.22-0.02-0.45-0.01-0.66L621.66,286.18z"/>
			</g>
			<g>
				<path class="st20" d="M627.1,139.16c0.52,1.09,0.89,1.98,1.28,2.95c0.4,0.96,0.72,1.91,1.09,2.86c0.67,1.91,1.32,3.83,1.88,5.76
					c1.18,3.85,2.11,7.74,2.98,11.63c1.68,7.8,2.78,15.68,3.54,23.57l0.49,5.92c0.14,1.97,0.2,3.95,0.3,5.93
					c0.25,3.95,0.21,7.91,0.27,11.85c0.03,3.95-0.16,7.89-0.23,11.84l-0.71,11.81c-0.06,0.93-0.86,1.65-1.79,1.59
					c-0.91-0.05-1.61-0.82-1.59-1.73l0-0.07l0.26-11.69c-0.08-3.89-0.03-7.79-0.21-11.67c-0.21-3.88-0.31-7.77-0.7-11.63
					c-0.17-1.93-0.31-3.87-0.52-5.8l-0.7-5.77c-1.04-7.68-2.4-15.3-4.3-22.76c-0.98-3.72-2.01-7.42-3.27-11.03
					c-0.6-1.82-1.28-3.59-1.97-5.35c-0.37-0.86-0.71-1.75-1.1-2.59c-0.37-0.83-0.79-1.73-1.15-2.4l-0.04-0.08
					c-0.9-1.69-0.26-3.8,1.44-4.7c1.69-0.9,3.8-0.26,4.7,1.44C627.06,139.08,627.08,139.12,627.1,139.16z"/>
			</g>
			<g>
				<path class="st24" d="M594.58,136.06c-6.83-0.34-19.66,18.53-18.18,24.55c1.38,5.56,21.02,16.69,31.3,11.39
					C614.88,168.29,601.42,136.39,594.58,136.06z"/>
			</g>
			<g>
				<path class="st20" d="M594.52,137.36c-0.93,0.15-1.97,0.77-2.94,1.56c-0.98,0.78-1.91,1.71-2.78,2.71
					c-0.89,0.98-1.72,2.04-2.51,3.13c-0.8,1.08-1.56,2.19-2.27,3.34c-1.42,2.28-2.74,4.65-3.69,7.05c-0.49,1.18-0.9,2.39-1.07,3.43
					c-0.11,0.53-0.09,0.98-0.06,1.22c0.02,0.12,0.04,0.15,0.06,0.25c0.04,0.07,0.07,0.14,0.1,0.21l0.17,0.27
					c0.5,0.77,1.41,1.67,2.35,2.46c0.97,0.8,2.03,1.56,3.12,2.29c2.2,1.45,4.59,2.66,7.03,3.71c2.46,0.99,4.99,1.84,7.55,2.23
					c2.55,0.41,5.14,0.4,7.49-0.44l0.05-0.02c0.72-0.26,1.51,0.12,1.76,0.83c0.22,0.62-0.03,1.28-0.55,1.62
					c-2.74,1.77-6.04,2.23-9.1,2.17c-3.1-0.08-6.09-0.72-8.95-1.65c-2.87-0.93-5.61-2.18-8.22-3.73c-1.31-0.77-2.58-1.63-3.81-2.63
					c-1.22-1.02-2.42-2.07-3.52-3.65c-0.14-0.21-0.27-0.41-0.4-0.63l-0.37-0.74c-0.24-0.56-0.44-1.2-0.5-1.8
					c-0.13-1.16-0.03-2.14,0.14-3c0.33-1.75,0.9-3.22,1.52-4.65c1.29-2.82,2.87-5.35,4.65-7.74c1.78-2.39,3.79-4.6,6.09-6.57
					c1.17-0.97,2.4-1.89,3.81-2.64c0.69-0.38,1.47-0.69,2.27-0.95c0.84-0.22,1.74-0.36,2.7-0.25c0.71,0.08,1.22,0.73,1.14,1.44
					c-0.07,0.59-0.52,1.04-1.08,1.13L594.52,137.36z"/>
			</g>
			<g>
				<path class="st20" d="M574.3,229.49c-0.04,0-0.08,0-0.11,0l-23.37-0.57c-2.56-0.06-4.58-2.18-4.52-4.74
					c0.06-2.56,2.23-4.58,4.74-4.52l23.37,0.57c2.56,0.06,4.58,2.18,4.52,4.74C578.86,227.49,576.8,229.49,574.3,229.49z"/>
			</g>
			<g>
				<ellipse class="st14" cx="517.91" cy="248.29" rx="33.02" ry="23.44"/>
			</g>
			<g>
				<path class="st20" d="M474.1,227.78c-2.41,0-4.45-1.87-4.61-4.31c-0.18-2.55,1.75-4.76,4.3-4.94l19.16-1.32
					c2.55-0.15,4.76,1.75,4.94,4.3c0.18,2.55-1.75,4.76-4.3,4.94l-19.16,1.32C474.32,227.77,474.21,227.78,474.1,227.78z"/>
			</g>
			<g>
				<path class="st20" d="M535.13,245.24c-0.18,1.24-0.57,2.28-1.15,3.35c-0.58,1.05-1.36,2.04-2.35,2.89
					c-1,0.83-2.21,1.52-3.52,1.9c-1.3,0.42-2.69,0.54-4.09,0.42c-2.75-0.24-5.16-1.41-7.1-2.79c-0.99-0.69-1.87-1.48-2.69-2.3
					c-0.41-0.42-0.8-0.84-1.17-1.3c-0.39-0.47-0.69-0.87-1.1-1.49l0,0l5.8-0.26c-0.46,0.65-0.79,1.04-1.21,1.51
					c-0.4,0.45-0.82,0.87-1.25,1.28c-0.87,0.82-1.81,1.57-2.83,2.23c-1.02,0.67-2.16,1.22-3.35,1.64c-1.2,0.42-2.5,0.62-3.78,0.66
					l-0.18,0.01l-0.02,0l0.18-0.01c-1.14-0.04-2.31-0.15-3.4-0.58c-1.09-0.39-2.1-0.99-2.92-1.73c-0.83-0.73-1.5-1.56-2.04-2.44
					c-0.54-0.9-0.95-1.74-1.28-2.83c-0.24-0.78,0.2-1.61,0.98-1.85c0.69-0.21,1.41,0.1,1.74,0.72l0.08,0.15
					c0.3,0.56,0.78,1.27,1.26,1.79c0.49,0.55,1.05,1.01,1.62,1.35c0.57,0.35,1.17,0.55,1.77,0.64c0.59,0.12,1.22,0.04,1.84-0.04
					l0.18-0.01l0.02,0l-0.18,0.01c0.73-0.18,1.42-0.41,2.08-0.79c0.66-0.39,1.29-0.84,1.88-1.4c0.58-0.56,1.13-1.18,1.63-1.86
					c0.25-0.34,0.48-0.68,0.7-1.04c0.2-0.33,0.45-0.77,0.53-0.97c0.54-1.46,2.16-2.2,3.62-1.66c0.22,0.08,0.42,0.18,0.6,0.31
					l1.58,1.09l0,0l0.82,0.86c0.3,0.3,0.59,0.62,0.91,0.91c0.61,0.6,1.24,1.16,1.87,1.68c0.64,0.5,1.28,0.97,1.91,1.34
					c0.65,0.34,1.26,0.68,1.9,0.85c0.33,0.09,0.59,0.15,0.93,0.2l0.5,0.06c0.17,0.01,0.33-0.01,0.5,0c0.66-0.04,1.36-0.1,2.05-0.38
					c1.4-0.49,2.9-1.62,4.18-2.93l0.13-0.13c0.42-0.42,1.1-0.43,1.52-0.01C535.07,244.56,535.17,244.91,535.13,245.24z"/>
			</g>
			<g>
				<path class="st20" d="M513.32,244.51c-2.45-1.18-4.64-2.9-6.37-5.01c-1.31-1.6-2.37-3.81-1.46-5.66
					c0.62-1.28,2.03-1.99,3.39-2.44c3.44-1.13,7.23-1.17,10.68-0.09c1.68,0.52,3.46,1.52,3.85,3.23c0.35,1.54-0.57,3.08-1.6,4.28
					C519.64,241.39,516.8,243.4,513.32,244.51z"/>
			</g>
			<g>
				<path class="st20" d="M524.74,250.7c-1.22,6.84-5.14,11.84-9.79,11.84c-4.66,0-8.61-5.06-9.79-11.95
					c5.91-0.45,9.62-6.69,9.62-6.69S519.18,250.01,524.74,250.7z"/>
			</g>
			<g>
				<path class="st26" d="M524.46,252.03c-1.46,6.15-5.17,10.51-9.51,10.51c-2.64,0-5.05-1.62-6.86-4.27
					c1.75-4.4,6.04-7.5,11.05-7.5C521.05,250.77,522.86,251.22,524.46,252.03z"/>
			</g>
			<g>
				<path class="st20" d="M527.03,249.01c0.27,0.77,0.45,1.84,0.34,2.83c-0.02,0.24-0.06,0.48-0.11,0.7l-0.05,0.23l-0.04,0.14
					l-0.15,0.56c-0.2,0.75-0.44,1.5-0.73,2.24c-0.56,1.48-1.29,2.93-2.24,4.3c-0.95,1.36-2.15,2.65-3.68,3.68
					c-1.53,1.01-3.49,1.7-5.5,1.69c-2.02-0.01-3.96-0.73-5.47-1.77c-1.53-1.04-2.69-2.33-3.65-3.7c-1.86-2.77-2.87-5.79-3.41-8.84
					l0-0.01l-0.5-2.67l3.09-0.64c0.68-0.14,1.34-0.32,1.99-0.66c0.64-0.34,1.28-0.75,1.87-1.27c0.59-0.52,1.16-1.11,1.68-1.75
					c0.26-0.32,0.51-0.66,0.74-1c0.22-0.31,0.48-0.74,0.57-0.94l0,0l0.55-8.82l5.25,8.56c0.15,0.24,0.45,0.66,0.71,0.98
					c0.27,0.35,0.56,0.69,0.85,1.02c0.59,0.66,1.22,1.28,1.87,1.83c0.66,0.54,1.33,1.01,2.02,1.4c0.34,0.16,0.69,0.36,1.03,0.46
					l0.26,0.1l0.06,0.03l0.23,0.06c0.18,0.05,0.35,0.11,0.53,0.17C525.86,248.18,526.53,248.6,527.03,249.01z M522.44,252.39
					c0,0.32,0.16,0.65,0.36,0.81c0.05,0.04,0.1,0.08,0.15,0.1c0.01,0.01,0.08,0.03,0.04,0.02l-0.12-0.03l-0.48-0.12
					c-0.66-0.15-1.25-0.39-1.86-0.61c-1.17-0.5-2.26-1.1-3.27-1.78c-1-0.68-1.92-1.42-2.79-2.22c-0.44-0.4-0.86-0.8-1.26-1.23
					c-0.42-0.44-0.78-0.82-1.25-1.41l5.8-0.26l-0.01,0.01c-0.44,0.66-0.76,1.05-1.17,1.54c-0.39,0.46-0.79,0.9-1.21,1.32
					c-0.84,0.85-1.77,1.63-2.78,2.33c-1.01,0.7-2.15,1.3-3.35,1.76c-1.21,0.47-2.54,0.71-3.87,0.79l2.59-3.32l0,0
					c0.41,2.39,1.25,4.74,2.49,6.58c0.62,0.9,1.37,1.69,2.14,2.21c0.78,0.53,1.55,0.78,2.32,0.79c0.77-0.01,1.55-0.25,2.33-0.75
					c0.77-0.52,1.51-1.28,2.14-2.19c0.63-0.91,1.17-1.95,1.59-3.06c0.22-0.55,0.4-1.12,0.55-1.71l0.12-0.44l0.03-0.11l0.01-0.06
					l-0.01,0.03c-0.01,0.06-0.01,0.12,0,0.2C521.71,251.9,522.04,252.29,522.44,252.39z"/>
			</g>
			<g>
				<path class="st20" d="M645.25,385.3c-0.25-1.18-0.44-2.28-0.63-3.42c-0.18-1.13-0.36-2.26-0.5-3.4
					c-0.28-2.28-0.5-4.58-0.41-6.96c0.03-0.78,0.68-1.38,1.45-1.35c0.62,0.02,1.14,0.45,1.3,1.02l0.02,0.06
					c0.57,1.98,1.41,3.96,2.32,5.91c0.45,0.97,0.94,1.94,1.43,2.9c0.49,0.95,1.01,1.93,1.52,2.81c0.97,1.68,0.4,3.84-1.28,4.81
					c-1.68,0.97-3.84,0.4-4.81-1.28c-0.19-0.33-0.32-0.67-0.4-1.02L645.25,385.3z"/>
			</g>
			<g>
				<path class="st20" d="M659.27,369.08c0.86,1.9,1.81,3.75,2.83,5.55c0.51,0.9,1.03,1.8,1.57,2.68c0.53,0.87,1.1,1.77,1.64,2.55
					c1.11,1.61,0.72,3.81-0.89,4.93c-1.61,1.11-3.81,0.72-4.93-0.89c-0.26-0.37-0.43-0.77-0.53-1.19l-0.02-0.1
					c-0.27-1.15-0.47-2.19-0.67-3.28c-0.2-1.08-0.37-2.16-0.53-3.24c-0.32-2.16-0.54-4.33-0.67-6.49c-0.04-0.64,0.45-1.18,1.08-1.22
					c0.49-0.03,0.92,0.25,1.12,0.67L659.27,369.08z"/>
			</g>
			<g>
				<path class="st20" d="M445.38,313.61H306.69c-8.52-0.02-15.45-6.95-15.45-15.45c0-8.52,6.93-15.45,15.45-15.45h138.69
					c8.52,0,15.45,6.93,15.45,15.45C460.83,306.68,453.9,313.61,445.38,313.61z M306.69,289.66c-4.69,0-8.51,3.82-8.51,8.51
					c0,4.68,3.82,8.5,8.51,8.51h138.68c4.69,0,8.51-3.81,8.51-8.51s-3.82-8.51-8.51-8.51H306.69z"/>
			</g>
			<g>
				<path class="st20" d="M491.54,154.94c-1.44-1.79-3.18-3.63-4.94-5.26c-1.78-1.65-3.68-3.16-5.7-4.37
					c-2.02-1.19-4.21-2.08-6.35-2.06c-1.07,0.01-2.11,0.27-3.05,0.83c-0.95,0.55-1.78,1.36-2.51,2.3l-0.03,0.04
					c-0.29,0.37-0.83,0.44-1.2,0.14c-0.34-0.27-0.42-0.74-0.21-1.11c0.69-1.17,1.55-2.3,2.7-3.2c1.14-0.91,2.58-1.5,4.04-1.72
					c2.96-0.42,5.78,0.38,8.29,1.42c2.52,1.08,4.83,2.47,7.01,4.01c2.2,1.56,4.21,3.17,6.24,5.09c1.16,1.1,1.21,2.94,0.11,4.1
					c-1.1,1.16-2.94,1.21-4.1,0.11c-0.09-0.09-0.18-0.18-0.26-0.27L491.54,154.94z"/>
			</g>
			<g>
				<path class="st20" d="M779.12,360.08c-0.12-1.23-0.19-2.36-0.25-3.54c-0.05-1.16-0.08-2.33-0.09-3.49
					c0-2.33,0.09-4.67,0.45-7.02c0.1-0.64,0.7-1.08,1.34-0.98c0.5,0.08,0.88,0.47,0.97,0.94l0.01,0.04c0.4,2.11,1.06,4.19,1.79,6.24
					c0.37,1.03,0.77,2.04,1.18,3.05c0.41,1,0.85,2.03,1.29,2.95c0.84,1.76,0.1,3.87-1.66,4.71c-1.76,0.84-3.87,0.1-4.71-1.66
					c-0.18-0.38-0.29-0.77-0.33-1.16L779.12,360.08z"/>
			</g>
			<g>
				<path class="st20" d="M794.13,356.88c-0.59-1.03-1.04-1.95-1.51-2.95c-0.46-0.98-0.89-1.97-1.29-2.98
					c-0.78-2.02-1.48-4.12-1.67-6.37c-0.04-0.52,0.34-0.97,0.86-1.01c0.38-0.03,0.73,0.17,0.9,0.48l0.04,0.07
					c0.9,1.63,2.2,3.08,3.57,4.45c0.69,0.68,1.41,1.34,2.14,1.98c0.73,0.62,1.51,1.28,2.22,1.8c1.6,1.15,1.96,3.38,0.81,4.98
					c-1.15,1.6-3.38,1.96-4.98,0.81c-0.42-0.3-0.76-0.68-1-1.1L794.13,356.88z"/>
			</g>
			<g>
				<path class="st27" d="M636.84,218.32c0.06,3.04-0.2,5.95-0.76,8.74C636.5,221.56,636.84,218.32,636.84,218.32z"/>
			</g>
			<g class="st18">
				<g>
					<path class="st20" d="M670.53,369.43c0,19.38-28.41,23.35-36.11,6.15c-10.03-22.49-7.56-60.95-9.36-90.78
						c-52.03,0.41-103.74,1.15-155.46,1.89c-11.23-6.74-18.35-21.28-20.89-35.12c-3.65-17.42-1.69-34.51,4.32-49.81
						c-1.81,21.07-1.04,53.68,18.37,66.94c28.33,19.35,153.74,14.01,164.68-40.85c-2.16,29.37-8.69,154.18,34.42,131.8
						C670.52,362.84,670.53,366.1,670.53,369.43z"/>
				</g>
			</g>
			<g class="st18">
				<g>
					<path class="st20" d="M803.3,344.94c-3.03,9.12-7.36,15.52-13.69,16.2c-28.04,3-19.95-43.29-22.46-59.46
						c-1.27-8.21-5.52-19.28-13.82-19.28c-32.2,0-55.79-1.02-82.3-0.54c-1.35,25.55-0.81,46.67-0.59,70.65
						c0,0-2.78-57.66,2.63-99.38c0,0,41.35,34.78,56.3-26.17c0,0,10.27,27.93,32.93,36.64C794.56,276,765.03,344.94,803.3,344.94z"
						/>
				</g>
			</g>
			<g>
				<circle class="st20" cx="447.39" cy="42.03" r="3.52"/>
			</g>
			<g>
				<g>
					<path class="st14" d="M331.21,182.04v0.41c0,4.49-3.65,8.14-8.14,8.14H186.59c-3.88,0-7.12-2.71-7.93-6.33
						c-0.14-0.58-0.21-1.18-0.21-1.81v-0.41c0-4.49,3.65-8.14,8.14-8.14h79.39c0,0,0.01,0,0.05,0h57.05
						C327.57,173.9,331.21,177.55,331.21,182.04z"/>
				</g>
				<g>
					<path class="st14" d="M313,169.94v3.96h-46.97c-0.03,0-0.05,0-0.05,0h-69.3v-3.96c0-9.55,7.74-17.29,17.29-17.29h81.74
						C305.26,152.65,313,160.4,313,169.94z"/>
				</g>
				<g>
					<path class="st28" d="M314.81,190.57l-2.9,16.57l-11.47,65.39l-5.38,30.63c-0.9,5.16-5.39,8.92-10.64,8.92h-60.17
						c-4.99,0-9.28-3.4-10.46-8.17c-0.08-0.28-0.14-0.56-0.19-0.84l-5.1-30.54l-9.43-56.49l-1.48-8.9l-2.77-16.57H314.81z"/>
				</g>
				<g class="st15">
					<path class="st14" d="M205.98,190.58l2.77,16.57l1.48,8.9l9.43,56.49l5.1,30.54c0.05,0.29,0.1,0.57,0.19,0.84
						c1.16,4.66,5.29,8.03,10.15,8.16h-10.84c-4.99,0-9.28-3.4-10.46-8.16c-0.08-0.28-0.14-0.56-0.19-0.84l-5.1-30.54l-9.43-56.49
						l-1.48-8.9l-2.77-16.58L205.98,190.58z"/>
				</g>
				<g>
					<path class="st20" d="M284.42,315.56h-60.17c-7,0-12.92-5.01-14.07-11.92l-18.78-112.5c-0.17-1.01,0.12-2.04,0.78-2.82
						c0.66-0.78,1.63-1.23,2.65-1.23h119.99c1.03,0,2,0.45,2.66,1.24c0.66,0.79,0.94,1.82,0.76,2.83l-19.76,112.59
						C297.28,310.59,291.37,315.56,284.42,315.56z M198.93,194.04l18.11,108.46c0.59,3.54,3.63,6.11,7.22,6.11h60.17
						c3.57,0,6.6-2.54,7.22-6.05l19.04-108.52H198.93z"/>
				</g>
				<g>
					<path class="st20" d="M323.08,194.05H186.59c-6.4,0-11.61-5.21-11.61-11.61v-0.4c0-6.4,5.21-11.61,11.61-11.61h136.49
						c6.4,0,11.61,5.21,11.61,11.61v0.4C334.69,188.84,329.48,194.05,323.08,194.05z M186.59,177.38c-2.57,0-4.66,2.09-4.66,4.66
						v0.4c0,2.57,2.09,4.66,4.66,4.66h136.49c2.57,0,4.66-2.09,4.66-4.66v-0.4c0-2.57-2.09-4.66-4.66-4.66H186.59z"/>
				</g>
				<g>
					<path class="st20" d="M313,177.38H196.68c-1.92,0-3.47-1.55-3.47-3.47v-3.96c0-11.45,9.31-20.76,20.76-20.76h81.74
						c11.45,0,20.76,9.31,20.76,20.76v3.96C316.47,175.82,314.92,177.38,313,177.38z M200.15,170.43h109.38v-0.49
						c0-7.62-6.2-13.82-13.82-13.82h-81.74c-7.62,0-13.82,6.2-13.82,13.82V170.43z"/>
				</g>
				<g>
					<polygon class="st29" points="311.91,207.14 300.44,272.53 208.52,272.53 197.6,207.14 					"/>
				</g>
				<g class="st15">
					<polygon class="st14" points="219.66,272.53 208.52,272.53 197.6,207.14 208.75,207.14 208.75,207.15 210.23,216.05 					"/>
				</g>
				<g>
					<path class="st20" d="M300.44,275.42h-91.92c-1.41,0-2.62-1.02-2.85-2.42l-10.91-65.39c-0.14-0.84,0.1-1.7,0.65-2.35
						c0.55-0.65,1.36-1.02,2.21-1.02h114.31c0.86,0,1.67,0.38,2.22,1.03c0.55,0.65,0.78,1.52,0.63,2.36l-11.47,65.39
						C303.05,274.41,301.85,275.42,300.44,275.42z M210.97,269.63h87.04l10.45-59.6H201.02L210.97,269.63z"/>
				</g>
				<g>
					<path class="st14" d="M265.65,226.17c-2.75-3.58-7.72-4.49-12.16-2.84c-4.44,1.65-8.3,5.61-10.79,10.23
						c-1.08,2-1.94,4.19-2.13,6.41c-0.19,2.22,0.37,4.47,1.78,5.76c1.41,1.31,3.74,1.45,5.42,0.05c1.68-1.39,2.44-3.93,4.19-5.18
						c1.67-1.19,3.81-0.89,5.39-2.23c1.81-1.53,2.11-4.5,3.77-6.23c1.03-1.06,2.42-1.49,3.55-2.42
						C265.81,228.79,266.38,227.1,265.65,226.17z"/>
				</g>
				<g>
					<path class="st14" d="M270.53,231.56c-6.18-4.8-5.46,9.79-12.64,10c-6.01,0.78-4.54,6.43-10.1,7.89
						c-0.75,3.12,6.02,5.9,7.97,6.2C266.21,257.26,277.5,236.99,270.53,231.56z"/>
				</g>
				<g class="st18">
					<g>
						<path class="st20" d="M314.81,190.57l-2.9,16.57l-11.47,65.39l-5.38,30.63c-0.9,5.16-5.39,8.92-10.64,8.92h-60.17
							c-4.99,0-9.28-3.4-10.46-8.17c78.67,2.8,73.99-87.87,73.99-87.87h-88.71l-1.48-8.9l-2.77-16.57H314.81z"/>
					</g>
				</g>
				<g class="st18">
					<g>
						<path class="st20" d="M331.21,182.04v0.41c0,4.49-3.65,8.14-8.14,8.14H186.59c-3.88,0-7.12-2.71-7.93-6.33
							c23.35,0.21,85.84-0.22,87.32-10.35c0,0,0.01,0,0.05,0c1.08,0,22.3-0.27,24.52-21.25h5.16c9.55,0,17.29,7.74,17.29,17.29v3.96
							h10.08C327.57,173.9,331.21,177.55,331.21,182.04z"/>
					</g>
				</g>
			</g>
		</g>
	</g>
	<g>
		<g>
			<g>
				<path class="st14" d="M409.61,89.01l-20.06,7.09l-1.42-4.03l5.7-20.31l-11.16,3.95l-1.97-5.58l19.65-6.95l1.41,3.99l-5.8,20.38
					l11.67-4.13L409.61,89.01z"/>
			</g>
		</g>
		<g>
			<g>
				<path class="st14" d="M464.33,93.7l-23.09,8.17l-1.64-4.63l6.56-23.37l-12.84,4.54l-2.27-6.42l22.62-8l1.62,4.59l-6.68,23.46
					l13.43-4.75L464.33,93.7z"/>
			</g>
		</g>
		<g>
			<g>
				<path class="st14" d="M434.67,132.75l-13.16,4.66l-0.93-2.64l3.74-13.32l-7.32,2.59l-1.29-3.66l12.89-4.56l0.93,2.62
					l-3.81,13.37l7.66-2.71L434.67,132.75z"/>
			</g>
		</g>
	</g>
</g>
</svg>
